<svg width="25" height="24" viewBox="0 0 25 24" fill="none" xmlns="http://www.w3.org/2000/svg">
<circle cx="12.0267" cy="12" r="12" fill="#24221E"/>
<path d="M13.945 17.5647C13.945 18.6187 13.1019 19.4829 12.0269 19.4829C10.9518 19.4829 10.1087 18.6187 10.1087 17.5647C10.1087 16.5108 10.9519 15.6466 12.0269 15.6466C13.1018 15.6466 13.945 16.5108 13.945 17.5647ZM12.9059 13.7284H11.1278C10.8642 13.7284 10.6473 13.5212 10.6352 13.2579L10.2588 5.03276C10.2459 4.75188 10.4702 4.51709 10.7514 4.51709H13.3011C13.5828 4.51709 13.8072 4.75257 13.7937 5.03389L13.3984 13.259C13.3858 13.5218 13.169 13.7284 12.9059 13.7284Z" fill="white"/>
</svg>
