<svg width="24" height="24" viewBox="0 0 24 24" fill="none" xmlns="http://www.w3.org/2000/svg">
<path d="M12.0001 22.1063C10.6256 22.1063 9.31179 21.8436 8.0586 21.318C6.85932 20.806 5.79141 20.0817 4.85489 19.1452C3.91836 18.2086 3.19407 17.1407 2.68202 15.9414C2.15649 14.6883 1.89372 13.3744 1.89372 12C1.89372 10.6255 2.15649 9.31167 2.68202 8.05848C3.19407 6.85919 3.91836 5.79128 4.85489 4.85476C5.79141 3.91824 6.85932 3.19395 8.0586 2.68189C9.31179 2.15636 10.6256 1.8936 12.0001 1.8936C13.3746 1.8936 14.6884 2.15636 15.9416 2.68189C17.1409 3.19395 18.2088 3.91824 19.1453 4.85476C20.0818 5.79128 20.8061 6.85919 21.3182 8.05848C21.8437 9.31167 22.1064 10.6255 22.1064 12C22.1064 13.3744 21.8437 14.6883 21.3182 15.9414C20.8061 17.1407 20.0818 18.2086 19.1453 19.1452C18.2088 20.0817 17.1409 20.806 15.9416 21.318C14.6884 21.8436 13.3746 22.1063 12.0001 22.1063ZM12.0001 20.0851C13.4689 20.0851 14.8299 19.7145 16.0831 18.9734C17.2958 18.2592 18.2593 17.2957 18.9735 16.0829C19.7146 14.8297 20.0852 13.4688 20.0852 12C20.0852 10.5312 19.7146 9.17018 18.9735 7.91699C18.2593 6.70423 17.2958 5.74075 16.0831 5.02657C14.8299 4.28544 13.4689 3.91487 12.0001 3.91487C10.5313 3.91487 9.1703 4.28544 7.91712 5.02657C6.70435 5.74075 5.74088 6.70423 5.0267 7.91699C4.28556 9.17018 3.915 10.5312 3.915 12C3.915 13.4688 4.28556 14.8297 5.0267 16.0829C5.74088 17.2957 6.70435 18.2592 7.91712 18.9734C9.1703 19.7145 10.5313 20.0851 12.0001 20.0851ZM10.9894 16.0425L6.70435 11.7574L8.13946 10.3223L10.9894 13.1925L16.7097 7.47231L18.1448 8.8872L10.9894 16.0425Z" fill="#24221E"/>
</svg>
