<svg width="160" height="49" viewBox="0 0 160 49" fill="none" xmlns="http://www.w3.org/2000/svg">
<g clip-path="url(#clip0_2077_17770)">
<g clip-path="url(#clip1_2077_17770)">
<g clip-path="url(#clip2_2077_17770)">
<mask id="mask0_2077_17770" style="mask-type:luminance" maskUnits="userSpaceOnUse" x="0" y="1" width="160" height="48">
<path d="M159.452 1.16797H0.955078V48.1324H159.452V1.16797Z" fill="white"/>
</mask>
<g mask="url(#mask0_2077_17770)">
<path d="M153.36 48.016H6.92951C3.70802 48.016 1.07227 45.3873 1.07227 42.1746V7.1265C1.07227 3.91376 3.70802 1.28516 6.92951 1.28516H153.36C156.582 1.28516 159.217 3.91376 159.217 7.1265V42.1746C159.217 45.3873 156.582 48.016 153.36 48.016Z" fill="#24221E"/>
<path d="M153.36 1.28516H6.92951C3.70802 1.28516 1.07227 3.91376 1.07227 7.1265V42.1746C1.07227 45.3873 3.70802 48.016 6.92951 48.016H153.36C156.582 48.016 159.217 45.3873 159.217 42.1746V7.1265C159.217 3.91376 156.582 1.28516 153.36 1.28516ZM153.36 2.21977C156.074 2.21977 158.281 4.42126 158.281 7.1265V42.1746C158.281 44.8803 156.074 47.0818 153.36 47.0818H6.92951C4.2169 47.0818 2.00942 44.8803 2.00942 42.1746V7.1265C2.00942 4.42126 4.2169 2.21977 6.92951 2.21977H153.36Z" fill="#24221E"/>
<path d="M56.4413 12.6108H53.0405V13.4506H55.5883C55.5205 14.135 55.2461 14.6735 54.7848 15.0642C54.3236 15.4548 53.7359 15.6502 53.0405 15.6502C52.2753 15.6502 51.6274 15.3873 51.0984 14.8597C50.5787 14.3213 50.3151 13.6568 50.3151 12.8555C50.3151 12.0523 50.5787 11.3878 51.0984 10.8513C51.6274 10.3218 52.2753 10.0589 53.0405 10.0589C53.4321 10.0589 53.8037 10.1264 54.1479 10.2743C54.4901 10.4204 54.7646 10.6248 54.9806 10.8895L55.6268 10.2451C55.3339 9.9129 54.9604 9.6574 54.5011 9.47118C54.0399 9.28684 53.5584 9.19922 53.0405 9.19922C52.0209 9.19922 51.157 9.54969 50.4523 10.2543C49.7459 10.9588 49.3926 11.8277 49.3926 12.8555C49.3926 13.8813 49.7459 14.752 50.4523 15.4548C51.157 16.1594 52.0209 16.5117 53.0405 16.5117C54.1075 16.5117 54.9605 16.1685 55.6177 15.4749C56.196 14.8981 56.4907 14.1168 56.4907 13.1384C56.4907 12.9723 56.4705 12.7952 56.4413 12.6108ZM57.7961 9.35436V16.3547H61.8924V15.495H58.6967V13.2753H61.5795V12.4338H58.6967V10.2159H61.8924V9.35436H57.7961ZM67.6648 10.2159V9.35436H62.8418V10.2159H64.8023V16.3547H65.7027V10.2159H67.6648ZM72.0659 9.35436H71.1654V16.3547H72.0659V9.35436ZM78.0315 10.2159V9.35436H73.2086V10.2159H75.1689V16.3547H76.0693V10.2159H78.0315ZM87.1667 10.2634C86.4712 9.54969 85.6183 9.19922 84.5987 9.19922C83.5792 9.19922 82.7264 9.54969 82.0307 10.2543C81.3353 10.948 80.9911 11.8186 80.9911 12.8555C80.9911 13.8904 81.3353 14.7611 82.0307 15.4548C82.7264 16.1594 83.5792 16.5117 84.5987 16.5117C85.6091 16.5117 86.4712 16.1594 87.1667 15.4548C87.8641 14.7611 88.2064 13.8904 88.2064 12.8555C88.2064 11.8277 87.8641 10.9588 87.1667 10.2634ZM82.6769 10.8513C83.1967 10.3218 83.8337 10.0589 84.5987 10.0589C85.3638 10.0589 86.0009 10.3218 86.5114 10.8513C87.0295 11.3696 87.2857 12.0432 87.2857 12.8555C87.2857 13.6659 87.0295 14.3414 86.5114 14.8597C86.0009 15.3873 85.3638 15.6502 84.5987 15.6502C83.8337 15.6502 83.1967 15.3873 82.6769 14.8597C82.1681 14.3304 81.9136 13.6659 81.9136 12.8555C81.9136 12.0432 82.1681 11.3787 82.6769 10.8513ZM90.3846 11.9939L90.3459 10.6449H90.3846L93.9536 16.3547H94.8945V9.35436H93.992V13.4506L94.0324 14.7994H93.992L90.5803 9.35436H89.4839V16.3547H90.3846V11.9939Z" fill="white" stroke="white" stroke-width="0.255589" stroke-miterlimit="10"/>
<path d="M126.223 36.2139H128.409V21.6091H126.223V36.2139ZM145.912 26.8703L143.406 33.2021H143.33L140.73 26.8703H138.375L142.276 35.7198L140.052 40.6427H142.332L148.342 26.8703H145.912ZM133.514 34.5552C132.8 34.5552 131.8 34.1978 131.8 33.3148C131.8 32.1876 133.044 31.7554 134.118 31.7554C135.078 31.7554 135.531 31.9618 136.115 32.2437C135.945 33.5968 134.777 34.5552 133.514 34.5552ZM133.779 26.5508C132.196 26.5508 130.558 27.2463 129.879 28.787L131.819 29.5947C132.234 28.787 133.006 28.5241 133.817 28.5241C134.947 28.5241 136.096 29.1999 136.115 30.4028V30.5529C135.719 30.3275 134.871 29.9895 133.835 29.9895C131.743 29.9895 129.615 31.1352 129.615 33.2774C129.615 35.2315 131.33 36.4905 133.25 36.4905C134.72 36.4905 135.531 35.8328 136.038 35.0622H136.115V36.1902H138.226V30.5903C138.226 27.9975 136.284 26.5508 133.779 26.5508ZM120.27 28.6482H117.162V23.6422H120.27C121.904 23.6422 122.832 24.9911 122.832 26.1451C122.832 27.2769 121.904 28.6482 120.27 28.6482ZM120.214 21.6091H114.976V36.2139H117.162V30.6808H120.214C122.636 30.6808 125.018 28.9321 125.018 26.1451C125.018 23.3588 122.636 21.6091 120.214 21.6091ZM91.6531 34.5579C90.1431 34.5579 88.8792 33.2964 88.8792 31.5656C88.8792 29.8146 90.1431 28.5354 91.6531 28.5354C93.144 28.5354 94.314 29.8146 94.314 31.5656C94.314 33.2964 93.144 34.5579 91.6531 34.5579ZM94.163 27.6881H94.0874C93.597 27.1048 92.6529 26.5778 91.4646 26.5778C88.973 26.5778 86.6897 28.7614 86.6897 31.5656C86.6897 34.3507 88.973 36.5151 91.4646 36.5151C92.6529 36.5151 93.597 35.988 94.0874 35.3861H94.163V36.1007C94.163 38.0024 93.144 39.0181 91.5021 39.0181C90.1627 39.0181 89.3323 38.0584 88.9923 37.2494L87.0865 38.0397C87.6333 39.3568 89.0861 40.9759 91.5021 40.9759C94.0692 40.9759 96.2395 39.4699 96.2395 35.7995V26.879H94.163V27.6881ZM97.75 36.2139H99.9381V21.6091H97.75V36.2139ZM103.165 31.3959C103.109 29.476 104.657 28.4976 105.769 28.4976C106.638 28.4976 107.374 28.9307 107.619 29.5513L103.165 31.3959ZM109.959 29.7393C109.544 28.6295 108.28 26.5778 105.694 26.5778C103.127 26.5778 100.994 28.5916 100.994 31.5465C100.994 34.332 103.109 36.5151 105.939 36.5151C108.222 36.5151 109.544 35.1228 110.091 34.3132L108.393 33.1837C107.826 34.012 107.053 34.5579 105.939 34.5579C104.826 34.5579 104.033 34.0495 103.525 33.0519L110.185 30.3042L109.959 29.7393ZM56.8845 28.1024V30.2102H61.9421C61.791 31.3959 61.3948 32.2615 60.7908 32.8639C60.0546 33.5977 58.9033 34.4073 56.8845 34.4073C53.7705 34.4073 51.3362 31.9042 51.3362 28.7988C51.3362 25.6934 53.7705 23.1899 56.8845 23.1899C58.5642 23.1899 59.7905 23.8488 60.6965 24.6958L62.1878 23.2086C60.9231 22.0043 59.2437 21.082 56.8845 21.082C52.6188 21.082 49.0332 24.5452 49.0332 28.7988C49.0332 33.0519 52.6188 36.5151 56.8845 36.5151C59.1865 36.5151 60.9231 35.7622 62.2817 34.3507C63.6782 32.9579 64.1125 31.0006 64.1125 29.4195C64.1125 28.9307 64.0744 28.4789 63.9989 28.1024H56.8845ZM69.8625 34.5579C68.3525 34.5579 67.0502 33.3156 67.0502 31.5465C67.0502 29.7585 68.3525 28.5354 69.8625 28.5354C71.372 28.5354 72.6742 29.7585 72.6742 31.5465C72.6742 33.3156 71.372 34.5579 69.8625 34.5579ZM69.8625 26.5778C67.1064 26.5778 64.861 28.6669 64.861 31.5465C64.861 34.4073 67.1064 36.5151 69.8625 36.5151C72.6176 36.5151 74.8634 34.4073 74.8634 31.5465C74.8634 28.6669 72.6176 26.5778 69.8625 26.5778ZM80.7717 34.5579C79.2627 34.5579 77.9599 33.3156 77.9599 31.5465C77.9599 29.7585 79.2627 28.5354 80.7717 28.5354C82.2818 28.5354 83.5836 29.7585 83.5836 31.5465C83.5836 33.3156 82.2818 34.5579 80.7717 34.5579ZM80.7717 26.5778C78.0167 26.5778 75.7713 28.6669 75.7713 31.5465C75.7713 34.4073 78.0167 36.5151 80.7717 36.5151C83.5278 36.5151 85.7732 34.4073 85.7732 31.5465C85.7732 28.6669 83.5278 26.5778 80.7717 26.5778Z" fill="white"/>
<path d="M25.2235 23.8613L12.752 37.0625C12.7524 37.0651 12.7534 37.0674 12.7539 37.0702C13.1363 38.5036 14.4491 39.559 16.0073 39.559C16.6301 39.559 17.2148 39.3911 17.7163 39.0964L17.7562 39.0731L31.7944 30.9945L25.2235 23.8613Z" fill="#EB3131"/>
<path d="M37.8402 21.6117L37.8282 21.6035L31.7676 18.0996L24.9395 24.1591L31.7914 30.9914L37.8201 27.5223C38.8771 26.9533 39.5946 25.842 39.5946 24.5606C39.5946 23.2884 38.8866 22.1826 37.8402 21.6117Z" fill="#F6B60B"/>
<path d="M12.7511 12.0078C12.6761 12.2835 12.6367 12.5722 12.6367 12.8721V36.1991C12.6367 36.4984 12.6756 36.7883 12.7515 37.0629L25.6523 24.1996L12.7511 12.0078Z" fill="#5778C5"/>
<path d="M25.3159 24.5356L31.7711 18.0997L17.7488 9.99187C17.2391 9.68742 16.6442 9.51172 16.0077 9.51172C14.4496 9.51172 13.135 10.5691 12.7524 12.0043L12.752 12.0079L25.3159 24.5356Z" fill="#3BAD49"/>
</g>
</g>
</g>
</g>
<defs>
<clipPath id="clip0_2077_17770">
<rect width="158.146" height="46.9658" fill="white" transform="translate(1.22266 1.16797)"/>
</clipPath>
<clipPath id="clip1_2077_17770">
<rect width="158.146" height="46.9658" fill="white" transform="translate(1.22266 1.16797)"/>
</clipPath>
<clipPath id="clip2_2077_17770">
<rect width="158.146" height="46.9644" fill="white" transform="translate(1.22266 1.16797)"/>
</clipPath>
</defs>
</svg>
