<svg width="141" height="49" viewBox="0 0 141 49" fill="none" xmlns="http://www.w3.org/2000/svg">
<g clip-path="url(#clip0_2077_17741)">
<g clip-path="url(#clip1_2077_17741)">
<g clip-path="url(#clip2_2077_17741)">
<path d="M129.677 1.16812H11.2265C10.7947 1.16812 10.3681 1.16812 9.93757 1.17047C9.57707 1.17282 9.21947 1.17964 8.85553 1.18538C8.0649 1.19466 7.27612 1.26402 6.49606 1.39286C5.71709 1.52451 4.96253 1.77271 4.25789 2.12905C3.5541 2.48841 2.91103 2.95537 2.35202 3.51297C1.79007 4.069 1.32164 4.71171 0.964735 5.41637C0.606853 6.11962 0.358696 6.87321 0.228835 7.65113C0.0977406 8.42807 0.0271969 9.21397 0.0178382 10.0018C0.00691158 10.3618 0.00575769 10.723 0 11.083V38.2225C0.00575769 38.5871 0.00691158 38.9402 0.0178382 39.3049C0.0271998 40.0927 0.0977434 40.8785 0.228835 41.6555C0.358337 42.4338 0.606509 43.1878 0.964735 43.8913C1.32147 44.5937 1.78997 45.2338 2.35202 45.7867C2.90892 46.3469 3.5524 46.8141 4.25789 47.1707C4.96252 47.528 5.717 47.7777 6.49606 47.9114C7.27625 48.0392 8.06494 48.1086 8.85553 48.119C9.21947 48.127 9.57707 48.1316 9.93757 48.1316C10.3681 48.1339 10.7947 48.1339 11.2265 48.1339H129.677C130.1 48.1339 130.53 48.1339 130.953 48.1316C131.312 48.1316 131.681 48.127 132.039 48.119C132.828 48.1091 133.616 48.0397 134.394 47.9114C135.175 47.7767 135.932 47.5271 136.641 47.1707C137.345 46.8139 137.988 46.3467 138.545 45.7867C139.105 45.2317 139.575 44.5921 139.936 43.8913C140.292 43.1873 140.537 42.4334 140.665 41.6555C140.797 40.8784 140.87 40.0928 140.884 39.3049C140.888 38.9402 140.888 38.5871 140.888 38.2225C140.897 37.7959 140.897 37.3717 140.897 36.9382V12.3649C140.897 11.935 140.897 11.5084 140.888 11.083C140.888 10.723 140.888 10.3618 140.884 10.0017C140.87 9.21385 140.797 8.42814 140.665 7.65109C140.537 6.87362 140.292 6.12008 139.936 5.41632C139.209 4.00391 138.056 2.85422 136.641 2.12894C135.932 1.77347 135.175 1.52534 134.394 1.39276C133.616 1.26335 132.828 1.19396 132.039 1.18522C131.681 1.17949 131.312 1.17261 130.953 1.17032C130.53 1.16797 130.1 1.16812 129.677 1.16812Z" fill="#24221E"/>
<path d="M9.9427 48.9228C9.58396 48.9228 9.23389 48.918 8.87796 48.9098C8.14063 48.8998 7.40502 48.8332 6.67716 48.7105C5.99847 48.5892 5.34101 48.3637 4.72644 48.0411C4.11753 47.7214 3.56213 47.3021 3.08156 46.7993C2.59404 46.3024 2.18814 45.7261 1.87997 45.0933C1.56841 44.4563 1.35279 43.7735 1.24063 43.0687C1.11949 42.3115 1.05396 41.5457 1.04458 40.7782C1.03711 40.5206 1.02734 39.6627 1.02734 39.6627V11.4423C1.02734 11.4423 1.03775 10.5976 1.04463 10.3495C1.05362 9.58312 1.11877 8.81859 1.23954 8.06249C1.35192 7.3558 1.5677 6.67107 1.87943 6.03201C2.18647 5.39959 2.59011 4.82287 3.0747 4.32423C3.55875 3.82084 4.11591 3.39936 4.72587 3.07515C5.33901 2.75371 5.99524 2.52971 6.67255 2.41065C7.4028 2.28673 8.14096 2.21974 8.88086 2.21023L9.94328 2.19531H130.947L132.022 2.21083C132.755 2.21986 133.487 2.28626 134.21 2.40945C134.895 2.53001 135.558 2.75557 136.178 3.07873C137.4 3.73211 138.394 4.76583 139.021 6.035C139.328 6.66965 139.541 7.34879 139.652 8.04938C139.773 8.81168 139.842 9.58221 139.856 10.3549C139.86 10.7008 139.86 11.0724 139.86 11.4423C139.869 11.9004 139.869 12.3364 139.869 12.7761V38.3433C139.869 38.787 139.869 39.2201 139.86 39.6567C139.86 40.0541 139.86 40.4179 139.855 40.7925C139.842 41.5513 139.774 42.3081 139.654 43.0568C139.543 43.7666 139.33 44.4547 139.018 45.097C138.708 45.7229 138.304 46.2942 137.822 46.7897C137.341 47.2952 136.785 47.717 136.174 48.0389C135.556 48.3638 134.894 48.5902 134.21 48.7105C133.483 48.8339 132.747 48.9005 132.01 48.9098C131.665 48.918 131.303 48.9228 130.953 48.9228L129.677 48.9253L9.9427 48.9228Z" fill="#24221E"/>
<path d="M29.4325 24.5229C29.4457 23.5038 29.7171 22.5046 30.2216 21.6182C30.7261 20.7318 31.4472 19.987 32.3179 19.4533C31.7648 18.6656 31.0351 18.0173 30.1868 17.56C29.3385 17.1027 28.3949 16.8489 27.431 16.8188C25.375 16.6036 23.3817 18.0457 22.3339 18.0457C21.2659 18.0457 19.6527 16.8401 17.9156 16.8758C16.792 16.912 15.697 17.2378 14.7372 17.8215C13.7773 18.4052 12.9855 19.2269 12.4389 20.2065C10.071 24.2949 11.8373 30.3034 14.1056 33.6082C15.2405 35.2264 16.5669 37.034 18.3024 36.97C20.0008 36.8997 20.6351 35.89 22.6851 35.89C24.7161 35.89 25.3112 36.97 27.082 36.9292C28.9044 36.8997 30.0526 35.3037 31.1477 33.6702C31.9631 32.5171 32.5906 31.2427 33.0068 29.8942C31.9481 29.4477 31.0445 28.7002 30.409 27.7451C29.7733 26.7899 29.4337 25.6692 29.4325 24.5229Z" fill="white"/>
<path d="M26.0864 14.6448C27.0801 13.4553 27.5697 11.9265 27.4511 10.3828C25.9331 10.5418 24.5308 11.2653 23.5237 12.4092C23.0313 12.968 22.6542 13.6181 22.4139 14.3223C22.1736 15.0265 22.0749 15.771 22.1233 16.5134C22.8826 16.5212 23.6338 16.3571 24.3203 16.0334C25.0068 15.7097 25.6106 15.235 26.0864 14.6448Z" fill="white"/>
<path d="M49.8075 33.0341H44.2342L42.8958 36.975H40.5352L45.8141 22.3945H48.2667L53.5456 36.975H51.1447L49.8075 33.0341ZM44.8114 31.2156H49.2292L47.0513 24.8197H46.9904L44.8114 31.2156Z" fill="white"/>
<path d="M64.946 31.6594C64.946 34.9629 63.1729 37.0853 60.4973 37.0853C59.8194 37.1206 59.1453 36.9649 58.5521 36.636C57.959 36.3071 57.4706 35.8182 57.1431 35.2254H57.0925V40.4907H54.9043V26.3436H57.0224V28.1117H57.0626C57.4052 27.5218 57.9018 27.0354 58.4995 26.7046C59.0972 26.3736 59.7736 26.2105 60.4569 26.2324C63.1625 26.2324 64.946 28.3651 64.946 31.6594ZM62.6969 31.6594C62.6969 29.5072 61.5815 28.0923 59.8797 28.0923C58.2079 28.0923 57.0833 29.537 57.0833 31.6594C57.0833 33.8013 58.2079 35.2358 59.8797 35.2358C61.5815 35.2358 62.6969 33.8311 62.6969 31.6594Z" fill="white"/>
<path d="M76.6789 31.6594C76.6789 34.9629 74.9052 37.0853 72.2296 37.0853C71.5517 37.1206 70.8776 36.9649 70.2845 36.636C69.6913 36.3071 69.203 35.8182 68.8755 35.2254H68.8248V40.4907H66.6367V26.3436H68.7547V28.1117H68.7949C69.1375 27.5218 69.6341 27.0354 70.2318 26.7046C70.8295 26.3736 71.5059 26.2105 72.1892 26.2324C74.8949 26.2324 76.6789 28.3651 76.6789 31.6594ZM74.4292 31.6594C74.4292 29.5072 73.3138 28.0923 71.6121 28.0923C69.9402 28.0923 68.8156 29.537 68.8156 31.6594C68.8156 33.8013 69.9402 35.2358 71.6121 35.2358C73.3138 35.2358 74.4292 33.8311 74.4292 31.6594Z" fill="white"/>
<path d="M84.4353 32.9115C84.5974 34.3574 86.006 35.3068 87.9308 35.3068C89.7752 35.3068 91.102 34.3574 91.102 33.0536C91.102 31.922 90.3018 31.2443 88.4069 30.7799L86.5119 30.3246C83.827 29.678 82.5806 28.4259 82.5806 26.394C82.5806 23.8783 84.7791 22.1504 87.8997 22.1504C90.9906 22.1504 93.1085 23.8783 93.1798 26.394H90.971C90.8387 24.9389 89.6326 24.0607 87.8698 24.0607C86.1072 24.0607 84.9009 24.9493 84.9009 26.2426C84.9009 27.2735 85.6714 27.88 87.5559 28.3444L89.1669 28.7388C92.1668 29.4463 93.4121 30.648 93.4121 32.7807C93.4121 35.5085 91.2343 37.217 87.7686 37.217C84.5261 37.217 82.3368 35.5487 82.1953 32.9114L84.4353 32.9115Z" fill="white"/>
<path d="M98.1335 23.8301V26.3458H100.161V28.0738H98.1335V33.9341C98.1335 34.8446 98.5389 35.2688 99.4303 35.2688C99.6709 35.2646 99.9115 35.2478 100.15 35.2183V36.936C99.7495 37.0107 99.3421 37.0444 98.9348 37.0369C96.7763 37.0369 95.9347 36.2286 95.9347 34.1669V28.0738H94.3848V26.3458H95.9347V23.8301H98.1335Z" fill="white"/>
<path d="M101.334 31.6613C101.334 28.3166 103.309 26.2148 106.39 26.2148C109.481 26.2148 111.447 28.3166 111.447 31.6613C111.447 35.0152 109.492 37.1077 106.39 37.1077C103.29 37.1077 101.334 35.0152 101.334 31.6613ZM109.218 31.6613C109.218 29.3669 108.163 28.0128 106.39 28.0128C104.617 28.0128 103.562 29.3773 103.562 31.6613C103.562 33.9649 104.617 35.3088 106.39 35.3088C108.163 35.3088 109.218 33.9649 109.218 31.6613Z" fill="white"/>
<path d="M113.252 26.3436H115.34V28.1529H115.39C115.531 27.5878 115.863 27.0884 116.331 26.7387C116.797 26.3889 117.371 26.2101 117.954 26.2323C118.206 26.2315 118.457 26.2588 118.704 26.3137V28.3547C118.386 28.2577 118.053 28.2132 117.72 28.2229C117.403 28.2101 117.086 28.2659 116.792 28.3867C116.497 28.5075 116.233 28.6904 116.016 28.9227C115.8 29.155 115.637 29.4315 115.537 29.7328C115.437 30.0342 115.405 30.3534 115.44 30.6686V36.9739H113.252V26.3436Z" fill="white"/>
<path d="M128.792 33.8537C128.498 35.7834 126.613 37.1077 124.202 37.1077C121.1 37.1077 119.176 35.0358 119.176 31.7118C119.176 28.3774 121.111 26.2148 124.11 26.2148C127.059 26.2148 128.914 28.2351 128.914 31.4583V32.206H121.385V32.3378C121.35 32.729 121.399 33.1231 121.529 33.494C121.658 33.8648 121.866 34.2039 122.138 34.4887C122.409 34.7734 122.738 34.9974 123.102 35.1458C123.467 35.2941 123.859 35.3633 124.253 35.3488C124.769 35.3971 125.288 35.2777 125.732 35.0084C126.176 34.7389 126.52 34.334 126.714 33.8537H128.792ZM121.395 30.6809H126.725C126.744 30.3291 126.69 29.9772 126.568 29.647C126.444 29.3168 126.254 29.0155 126.009 28.7622C125.762 28.5089 125.467 28.3089 125.14 28.1748C124.814 28.0407 124.463 27.9754 124.11 27.983C123.754 27.9809 123.4 28.0491 123.07 28.1838C122.74 28.3185 122.441 28.517 122.188 28.7679C121.936 29.0187 121.736 29.3169 121.6 29.6453C121.464 29.9736 121.394 30.3256 121.395 30.6809Z" fill="white"/>
<path d="M44.5377 11.42C44.9965 11.3873 45.4568 11.4564 45.8855 11.6224C46.3142 11.7885 46.7007 12.0474 47.0169 12.3803C47.3331 12.7134 47.5713 13.1122 47.7143 13.5482C47.8572 13.9841 47.9014 14.4463 47.8435 14.9013C47.8435 17.1394 46.6304 18.426 44.5377 18.426H42V11.42H44.5377ZM43.0912 17.4352H44.4159C44.7437 17.4548 45.0717 17.4012 45.3761 17.2783C45.6805 17.1555 45.9537 16.9665 46.1755 16.7252C46.3975 16.4838 46.5627 16.1961 46.6591 15.883C46.7554 15.57 46.7806 15.2395 46.7328 14.9155C46.7772 14.5928 46.7494 14.2643 46.6515 13.9536C46.5537 13.6428 46.3881 13.3575 46.1667 13.1181C45.9452 12.8786 45.6735 12.691 45.3707 12.5686C45.068 12.4462 44.7419 12.392 44.4159 12.4102H43.0912V17.4352Z" fill="white"/>
<path d="M49.0763 15.7804C49.0429 15.4329 49.0828 15.0823 49.1933 14.7512C49.3038 14.42 49.4825 14.1155 49.7179 13.8572C49.9533 13.5989 50.2402 13.3925 50.5604 13.2513C50.8804 13.11 51.2266 13.0371 51.5766 13.0371C51.9266 13.0371 52.2728 13.11 52.5928 13.2513C52.913 13.3925 53.1999 13.5989 53.4354 13.8572C53.6708 14.1155 53.8494 14.42 53.9599 14.7512C54.0704 15.0823 54.1102 15.4329 54.077 15.7804C54.1109 16.1282 54.0715 16.4792 53.9613 16.811C53.8511 17.1427 53.6726 17.4478 53.4371 17.7066C53.2016 17.9654 52.9144 18.1722 52.594 18.3137C52.2736 18.4552 51.927 18.5283 51.5766 18.5283C51.2261 18.5283 50.8796 18.4552 50.5592 18.3137C50.2388 18.1722 49.9516 17.9654 49.7161 17.7066C49.4806 17.4478 49.3021 17.1427 49.1919 16.811C49.0817 16.4792 49.0423 16.1282 49.0763 15.7804ZM53.0007 15.7804C53.0007 14.6343 52.4843 13.9642 51.5783 13.9642C50.6688 13.9642 50.1571 14.6343 50.1571 15.7804C50.1571 16.9357 50.6688 17.6006 51.5783 17.6006C52.4844 17.6006 53.0007 16.9311 53.0007 15.7804Z" fill="white"/>
<path d="M60.7238 18.4258H59.6384L58.5426 14.5318H58.4598L57.3686 18.4258H56.2934L54.832 13.1387H55.8934L56.8431 17.173H56.9213L58.0113 13.1387H59.0151L60.1052 17.173H60.188L61.1332 13.1387H62.1795L60.7238 18.4258Z" fill="white"/>
<path d="M63.4082 13.1385H64.4155V13.9784H64.4936C64.6262 13.6767 64.85 13.4239 65.1336 13.2551C65.4172 13.0862 65.7466 13.0098 66.0759 13.0364C66.3338 13.0171 66.5929 13.0559 66.8337 13.1499C67.0746 13.244 67.2912 13.3909 67.4675 13.5797C67.6437 13.7686 67.7751 13.9945 67.8518 14.241C67.9286 14.4873 67.9488 14.7477 67.911 15.0029V18.4255H66.8646V15.2649C66.8646 14.4153 66.4943 13.9927 65.7205 13.9927C65.5453 13.9846 65.3705 14.0144 65.208 14.0798C65.0454 14.1454 64.899 14.2453 64.7787 14.3726C64.6585 14.4998 64.5673 14.6515 64.5113 14.8172C64.4554 14.9829 64.436 15.1587 64.4545 15.3326V18.4256H63.4082V13.1385Z" fill="white"/>
<path d="M69.5801 11.0742H70.6265V18.4252H69.5801V11.0742Z" fill="white"/>
<path d="M72.0802 15.7784C72.0469 15.431 72.0868 15.0805 72.1973 14.7492C72.3078 14.4181 72.4865 14.1135 72.722 13.8552C72.9574 13.5969 73.2443 13.3906 73.5645 13.2493C73.8846 13.1081 74.2307 13.0352 74.5807 13.0352C74.9308 13.0352 75.277 13.1081 75.5971 13.2493C75.9173 13.3906 76.2042 13.5969 76.4396 13.8552C76.6751 14.1135 76.8538 14.4181 76.9643 14.7492C77.0748 15.0805 77.1147 15.431 77.0814 15.7784C77.1154 16.1263 77.0759 16.4774 76.9656 16.8091C76.8554 17.1408 76.6769 17.4458 76.4414 17.7046C76.2059 17.9634 75.9186 18.1702 75.5982 18.3117C75.2778 18.4533 74.9313 18.5264 74.5807 18.5264C74.2303 18.5264 73.8837 18.4533 73.5633 18.3117C73.2429 18.1702 72.9557 17.9634 72.7202 17.7046C72.4847 17.4458 72.3062 17.1408 72.1959 16.8091C72.0857 16.4774 72.0462 16.1263 72.0802 15.7784ZM76.0046 15.7784C76.0046 14.6325 75.4882 13.9622 74.5822 13.9622C73.6727 13.9622 73.161 14.6325 73.161 15.7785C73.161 16.9337 73.6728 17.5988 74.5822 17.5988C75.4883 17.5988 76.0046 16.9291 76.0046 15.7784Z" fill="white"/>
<path d="M78.1816 16.9311C78.1816 15.9794 78.8923 15.4307 80.1536 15.3527L81.5898 15.2702V14.8139C81.5898 14.2554 81.2196 13.9401 80.5043 13.9401C79.9202 13.9401 79.5155 14.1539 79.3993 14.5277H78.3863C78.4932 13.6196 79.3498 13.0371 80.5526 13.0371C81.8819 13.0371 82.6315 13.697 82.6315 14.8139V18.4263H81.6242V17.6833H81.5415C81.3735 17.9497 81.1375 18.167 80.8577 18.3129C80.5779 18.4587 80.2643 18.5279 79.949 18.5133C79.7263 18.5364 79.5014 18.5127 79.2886 18.4438C79.0757 18.3749 78.8798 18.2623 78.7132 18.1132C78.5467 17.9641 78.4134 17.7819 78.3219 17.5783C78.2302 17.3746 78.1825 17.1542 78.1816 16.9311ZM81.5898 16.4793V16.0373L80.2951 16.1198C79.5649 16.1686 79.2338 16.4162 79.2338 16.8823C79.2338 17.3582 79.6476 17.6351 80.2169 17.6351C80.3837 17.6519 80.5522 17.6352 80.7123 17.5857C80.8724 17.5362 81.021 17.4552 81.149 17.3474C81.2772 17.2396 81.3821 17.1071 81.4578 16.958C81.5336 16.8088 81.5784 16.6461 81.5898 16.4793Z" fill="white"/>
<path d="M84.0078 15.7794C84.0078 14.1088 84.869 13.0504 86.2086 13.0504C86.5399 13.0352 86.8688 13.1144 87.1567 13.2786C87.4446 13.4428 87.6797 13.6854 87.8345 13.978H87.9127V11.0742H88.959V18.4252H87.9563V17.5899H87.8736C87.7068 17.8805 87.4635 18.12 87.17 18.2827C86.8766 18.4453 86.5441 18.5247 86.2086 18.5124C84.8598 18.5124 84.0078 17.4541 84.0078 15.7794ZM85.0887 15.7794C85.0887 16.9008 85.6187 17.5756 86.5052 17.5756C87.3871 17.5756 87.9322 16.8911 87.9322 15.784C87.9322 14.6821 87.3815 13.9878 86.5052 13.9878C85.6245 13.9878 85.0887 14.6672 85.0887 15.7794Z" fill="white"/>
<path d="M93.2873 15.7804C93.2539 15.4329 93.2938 15.0823 93.4043 14.7512C93.5147 14.42 93.6935 14.1155 93.9289 13.8572C94.1643 13.5989 94.4512 13.3925 94.7713 13.2513C95.0914 13.11 95.4375 13.0371 95.7876 13.0371C96.1376 13.0371 96.4836 13.11 96.8037 13.2513C97.1239 13.3925 97.4105 13.5989 97.6462 13.8572C97.882 14.1155 98.0603 14.42 98.1705 14.7512C98.2817 15.0823 98.321 15.4329 98.2875 15.7804C98.322 16.1282 98.2827 16.4792 98.1725 16.811C98.0622 17.1427 97.884 17.4478 97.6482 17.7066C97.4124 17.9654 97.1258 18.1722 96.8047 18.3137C96.4846 18.4552 96.1376 18.5283 95.7876 18.5283C95.4371 18.5283 95.0905 18.4552 94.7701 18.3137C94.4497 18.1722 94.1625 17.9654 93.9271 17.7066C93.6916 17.4478 93.5131 17.1427 93.4028 16.811C93.2926 16.4792 93.2532 16.1282 93.2873 15.7804ZM97.2121 15.7804C97.2121 14.6343 96.6954 13.9642 95.7893 13.9642C94.8798 13.9642 94.3681 14.6343 94.3681 15.7804C94.3681 16.9357 94.8798 17.6006 95.7893 17.6006C96.6954 17.6006 97.2121 16.9311 97.2121 15.7804Z" fill="white"/>
<path d="M99.6914 13.1385H100.699V13.9784H100.777C100.91 13.6767 101.134 13.4239 101.417 13.2551C101.7 13.0862 102.03 13.0098 102.359 13.0364C102.618 13.0171 102.876 13.0559 103.117 13.1499C103.359 13.244 103.574 13.3909 103.751 13.5797C103.927 13.7686 104.058 13.9945 104.135 14.241C104.212 14.4873 104.233 14.7477 104.194 15.0029V18.4255H103.148V15.2649C103.148 14.4153 102.778 13.9927 102.004 13.9927C101.829 13.9846 101.654 14.0144 101.491 14.0798C101.328 14.1454 101.183 14.2453 101.062 14.3726C100.942 14.4998 100.851 14.6515 100.795 14.8172C100.739 14.9829 100.72 15.1587 100.738 15.3326V18.4256H99.6914V13.1385Z" fill="white"/>
<path d="M110.11 11.8223V13.1626H111.258V14.0415H110.11V16.7602C110.11 17.314 110.338 17.5565 110.859 17.5565C110.993 17.5561 111.126 17.5481 111.258 17.5324V18.4016C111.07 18.4351 110.88 18.453 110.689 18.4549C109.525 18.4549 109.062 18.0467 109.062 17.0273V14.0415H108.221V13.1626H109.062V11.8223H110.11Z" fill="white"/>
<path d="M112.686 11.0742H113.723V13.9878H113.806C113.945 13.6833 114.175 13.429 114.464 13.2596C114.753 13.09 115.088 13.0136 115.422 13.0406C115.679 13.0267 115.936 13.0695 116.173 13.1658C116.412 13.2622 116.626 13.4097 116.8 13.598C116.975 13.7863 117.105 14.0105 117.183 14.255C117.26 14.4993 117.282 14.7577 117.248 15.0118V18.4252H116.201V15.2691C116.201 14.4246 115.806 13.9969 115.067 13.9969C114.887 13.9823 114.706 14.0069 114.537 14.0692C114.368 14.1315 114.214 14.2299 114.087 14.3576C113.96 14.4853 113.863 14.6391 113.801 14.8084C113.74 14.9776 113.716 15.1581 113.732 15.3374V18.4252H112.686V11.0742Z" fill="white"/>
<path d="M123.351 16.9968C123.208 17.48 122.901 17.898 122.481 18.1776C122.061 18.4572 121.556 18.5807 121.054 18.5264C120.704 18.5356 120.357 18.4689 120.037 18.3309C119.716 18.1929 119.428 17.9869 119.195 17.7273C118.962 17.4677 118.789 17.1606 118.687 16.8273C118.585 16.494 118.557 16.1427 118.605 15.7974C118.558 15.4512 118.587 15.0991 118.688 14.7648C118.79 14.4305 118.963 14.122 119.194 13.8601C119.426 13.5982 119.712 13.389 120.032 13.2467C120.352 13.1044 120.699 13.0323 121.049 13.0352C122.524 13.0352 123.414 14.0403 123.414 15.7005V16.0646H119.671V16.1231C119.654 16.3171 119.678 16.5124 119.743 16.6965C119.806 16.8805 119.907 17.0493 120.041 17.1918C120.173 17.3344 120.335 17.4478 120.514 17.5246C120.693 17.6014 120.887 17.6399 121.082 17.6377C121.333 17.6677 121.587 17.6227 121.811 17.5086C122.035 17.3945 122.221 17.2163 122.344 16.9968H123.351ZM119.671 15.293H122.349C122.361 15.1154 122.337 14.9373 122.278 14.7697C122.217 14.6021 122.122 14.4489 122 14.3199C121.877 14.1909 121.729 14.089 121.564 14.0207C121.399 13.9524 121.221 13.9192 121.043 13.9233C120.862 13.921 120.683 13.9549 120.515 14.023C120.347 14.091 120.195 14.1918 120.067 14.3194C119.939 14.4471 119.838 14.599 119.77 14.7662C119.702 14.9333 119.668 15.1125 119.671 15.293Z" fill="white"/>
</g>
</g>
</g>
<defs>
<clipPath id="clip0_2077_17741">
<rect width="140.897" height="46.9658" fill="white" transform="translate(0 1.16797)"/>
</clipPath>
<clipPath id="clip1_2077_17741">
<rect width="140.897" height="46.9658" fill="white" transform="translate(0 1.16797)"/>
</clipPath>
<clipPath id="clip2_2077_17741">
<rect width="140.897" height="46.9658" fill="white" transform="translate(0 1.16797)"/>
</clipPath>
</defs>
</svg>
