<svg width="593" height="549" viewBox="0 0 593 549" fill="none" xmlns="http://www.w3.org/2000/svg">
<path d="M279.827 548.999H8.03688C5.90536 548.999 3.86115 548.152 2.35395 546.645C0.84674 545.138 0 543.094 0 540.962V7.9665C0.0185584 5.84721 0.873483 3.82103 2.37868 2.32901C3.88388 0.836993 5.9175 -8.12498e-05 8.03688 5.91512e-09H279.827C280.882 5.91513e-09 281.927 0.207878 282.902 0.611769C283.878 1.01566 284.764 1.60765 285.51 2.35395C286.256 3.10024 286.848 3.98622 287.252 4.9613C287.656 5.93638 287.864 6.98146 287.864 8.03688V540.962C287.864 542.018 287.656 543.063 287.252 544.038C286.848 545.013 286.256 545.899 285.51 546.645C284.764 547.391 283.878 547.983 282.902 548.387C281.927 548.791 280.882 548.999 279.827 548.999ZM8.03688 0.281503C5.99983 0.285224 4.04728 1.09608 2.60687 2.5365C1.16646 3.97691 0.355598 5.92946 0.351877 7.9665V540.962C0.355598 542.999 1.16646 544.952 2.60687 546.392C4.04728 547.832 5.99983 548.643 8.03688 548.647H279.827C281.864 548.643 283.817 547.832 285.257 546.392C286.697 544.952 287.508 542.999 287.512 540.962V7.9665C287.508 5.92946 286.697 3.97691 285.257 2.5365C283.817 1.09608 281.864 0.285224 279.827 0.281503H8.03688Z" fill="#EBEBEB"/>
<path d="M584.271 548.999H312.481C310.35 548.999 308.305 548.152 306.798 546.645C305.291 545.138 304.444 543.094 304.444 540.962V7.9665C304.463 5.84721 305.318 3.82103 306.823 2.32901C308.328 0.836993 310.362 -8.12498e-05 312.481 5.91512e-09H584.271C586.403 5.91514e-09 588.447 0.84674 589.954 2.35395C591.461 3.86115 592.308 5.90536 592.308 8.03688V540.962C592.308 542.018 592.1 543.063 591.696 544.038C591.292 545.013 590.7 545.899 589.954 546.645C589.208 547.391 588.322 547.983 587.347 548.387C586.372 548.791 585.327 548.999 584.271 548.999ZM312.481 0.281503C310.444 0.285224 308.492 1.09608 307.051 2.5365C305.611 3.97691 304.8 5.92946 304.796 7.9665V540.962C304.8 542.999 305.611 544.952 307.051 546.392C308.492 547.832 310.444 548.643 312.481 548.647H584.271C586.308 548.643 588.261 547.832 589.701 546.392C591.142 544.952 591.953 542.999 591.956 540.962V7.9665C591.953 5.92946 591.142 3.97691 589.701 2.5365C588.261 1.09608 586.308 0.285224 584.271 0.281503H312.481Z" fill="#EBEBEB"/>
<path d="M103.396 159.4L105.676 164.003L110.771 164.749L107.083 168.338L107.956 173.405L103.396 171.012L98.8494 173.405L99.7221 168.338L96.0344 164.749L101.13 164.003L103.396 159.4Z" fill="#EBEBEB"/>
<path d="M558.936 376.48L561.216 381.097L566.311 381.843L562.623 385.418L563.496 390.499L558.936 388.106L554.389 390.499L555.262 385.418L551.574 381.843L556.669 381.097L558.936 376.48Z" fill="#F5F5F5"/>
<path d="M468.715 510.32L470.995 514.923L476.076 515.669L472.388 519.258L473.261 524.325L468.715 521.932L464.169 524.325L465.027 519.258L461.354 515.669L466.435 514.923L468.715 510.32Z" fill="#F5F5F5"/>
<path d="M262.289 77.6236L263.134 79.3408L265.034 79.6223C265.14 79.6361 265.24 79.6799 265.322 79.7485C265.404 79.8171 265.465 79.9076 265.497 80.0095C265.53 80.1114 265.533 80.2204 265.505 80.3238C265.478 80.4272 265.422 80.5207 265.344 80.5934L263.936 81.9306L264.26 83.8166C264.276 83.9216 264.264 84.0291 264.223 84.1273C264.183 84.2256 264.116 84.3107 264.03 84.3733C263.944 84.4359 263.842 84.4735 263.736 84.4821C263.63 84.4907 263.524 84.4698 263.429 84.4219L261.74 83.521L260.051 84.4219C259.956 84.4698 259.85 84.4907 259.744 84.4821C259.638 84.4735 259.537 84.4359 259.451 84.3733C259.365 84.3107 259.298 84.2256 259.258 84.1273C259.217 84.0291 259.204 83.9216 259.221 83.8166L259.531 81.9306L258.123 80.5934C258.044 80.5198 257.988 80.4252 257.962 80.3207C257.935 80.2162 257.939 80.1062 257.973 80.0039C258.007 79.9017 258.07 79.8113 258.154 79.7436C258.238 79.676 258.34 79.6339 258.447 79.6223L260.333 79.3408L261.177 77.6236C261.211 77.5021 261.284 77.395 261.384 77.3188C261.485 77.2425 261.607 77.2012 261.733 77.2012C261.859 77.2012 261.982 77.2425 262.082 77.3188C262.183 77.395 262.255 77.5021 262.289 77.6236Z" fill="#EBEBEB"/>
<path d="M29.8247 488.405L30.6692 490.108L32.5553 490.389C32.6624 490.404 32.7632 490.449 32.8462 490.518C32.9292 490.587 32.9911 490.678 33.0248 490.781C33.0586 490.884 33.0628 490.994 33.037 491.099C33.0112 491.204 32.9565 491.299 32.879 491.375L31.4715 492.698L31.7952 494.584C31.8119 494.689 31.7992 494.796 31.7586 494.895C31.718 494.993 31.6511 495.078 31.5652 495.14C31.4793 495.203 31.3778 495.241 31.2718 495.249C31.1659 495.258 31.0597 495.237 30.9648 495.189L29.2758 494.302L27.5868 495.189C27.492 495.237 27.3857 495.258 27.2798 495.249C27.1738 495.241 27.0723 495.203 26.9865 495.14C26.9006 495.078 26.8336 494.993 26.793 494.895C26.7524 494.796 26.7397 494.689 26.7564 494.584L27.0801 492.698L25.6726 491.375C25.5954 491.3 25.5404 491.206 25.514 491.102C25.4875 490.998 25.4905 490.889 25.5226 490.786C25.5548 490.684 25.6148 490.593 25.696 490.523C25.7772 490.452 25.8763 490.406 25.9822 490.389L27.8683 490.108L28.7269 488.405C28.7645 488.289 28.8379 488.188 28.9365 488.116C29.0351 488.044 29.1539 488.006 29.2758 488.006C29.3977 488.006 29.5165 488.044 29.6151 488.116C29.7137 488.188 29.7871 488.289 29.8247 488.405Z" fill="#F5F5F5"/>
<path d="M67.7852 59.5371L68.6297 61.2543L70.5298 61.5217C70.6357 61.5386 70.7349 61.5847 70.816 61.6548C70.8972 61.7249 70.9573 61.8162 70.9894 61.9186C71.0216 62.0209 71.0246 62.1302 70.9981 62.2341C70.9716 62.338 70.9167 62.4325 70.8395 62.507L69.432 63.9145L69.7557 65.7865C69.7782 65.8927 69.7695 66.0032 69.7306 66.1047C69.6917 66.2061 69.6243 66.2941 69.5365 66.358C69.4487 66.422 69.3443 66.4592 69.2358 66.4652C69.1274 66.4712 69.0195 66.4456 68.9253 66.3917L67.2363 65.505L65.5472 66.3917C65.453 66.4456 65.3451 66.4712 65.2366 66.4652C65.1282 66.4592 65.0238 66.422 64.936 66.358C64.8482 66.2941 64.7808 66.2061 64.7419 66.1047C64.703 66.0032 64.6943 65.8927 64.7168 65.7865L65.0265 63.9145L63.619 62.507C63.5415 62.4316 63.4868 62.336 63.461 62.231C63.4352 62.1261 63.4394 62.016 63.4732 61.9133C63.5069 61.8106 63.5688 61.7194 63.6518 61.6502C63.7348 61.581 63.8356 61.5365 63.9427 61.5217L65.8287 61.2543L66.7296 59.5371C66.7748 59.4349 66.8487 59.3479 66.9424 59.2869C67.0361 59.2258 67.1455 59.1934 67.2574 59.1934C67.3692 59.1934 67.4786 59.2258 67.5723 59.2869C67.666 59.3479 67.74 59.4349 67.7852 59.5371Z" fill="#EBEBEB"/>
<path d="M65.5056 398.776C65.5084 399.147 65.401 399.51 65.197 399.82C64.993 400.129 64.7016 400.372 64.3598 400.515C64.018 400.659 63.6412 400.698 63.2771 400.628C62.9131 400.557 62.5782 400.38 62.315 400.119C62.0518 399.857 61.8721 399.524 61.7987 399.16C61.7254 398.797 61.7616 398.42 61.9029 398.077C62.0441 397.734 62.284 397.441 62.5922 397.234C62.9003 397.028 63.2628 396.918 63.6337 396.918C64.1277 396.918 64.6017 397.113 64.9524 397.461C65.3031 397.809 65.5019 398.282 65.5056 398.776Z" fill="#EBEBEB"/>
<path d="M332.285 164.524C332.288 164.895 332.18 165.258 331.976 165.568C331.772 165.877 331.481 166.12 331.139 166.263C330.797 166.407 330.42 166.446 330.056 166.376C329.692 166.305 329.358 166.128 329.094 165.867C328.831 165.605 328.651 165.272 328.578 164.908C328.505 164.545 328.541 164.168 328.682 163.825C328.823 163.482 329.063 163.189 329.371 162.983C329.68 162.776 330.042 162.666 330.413 162.666C330.658 162.664 330.901 162.711 331.128 162.803C331.355 162.896 331.562 163.033 331.736 163.205C331.91 163.378 332.048 163.583 332.142 163.81C332.236 164.036 332.285 164.279 332.285 164.524Z" fill="#EBEBEB"/>
<path d="M235.223 61.0868C235.223 61.4571 235.114 61.819 234.908 62.1269C234.702 62.4347 234.41 62.6746 234.068 62.8163C233.726 62.958 233.349 62.9951 232.986 62.9228C232.623 62.8506 232.29 62.6723 232.028 62.4105C231.766 62.1487 231.588 61.8152 231.515 61.452C231.443 61.0889 231.48 60.7125 231.622 60.3705C231.764 60.0284 232.004 59.736 232.311 59.5303C232.619 59.3246 232.981 59.2148 233.351 59.2148C233.847 59.2185 234.321 59.4169 234.671 59.7672C235.021 60.1175 235.22 60.5915 235.223 61.0868Z" fill="#F5F5F5"/>
<path d="M238.187 517.321C243.748 516.009 247.192 510.437 245.879 504.876C244.567 499.316 238.995 495.872 233.435 497.184C227.874 498.497 224.43 504.068 225.742 509.629C227.055 515.19 232.627 518.634 238.187 517.321Z" fill="#F0F0F0"/>
<path d="M232.253 501.199C230.134 501.195 228.069 501.865 226.356 503.113C225.481 505.12 225.266 507.353 225.743 509.489C226.219 511.626 227.361 513.556 229.005 515.001C230.649 516.446 232.71 517.332 234.89 517.53C237.07 517.729 239.257 517.23 241.135 516.105C241.966 514.567 242.384 512.84 242.347 511.093C242.31 509.345 241.82 507.637 240.925 506.136C240.029 504.635 238.759 503.392 237.239 502.529C235.719 501.666 234.001 501.213 232.253 501.213V501.199Z" fill="#E6E6E6"/>
<path d="M152.138 327.444H66.4912V288.78L152.138 186.961H193.125V290.976H214.364V327.444H193.125V359.085H152.138V327.444ZM152.138 290.976V237.716L106.873 290.976H152.138Z" fill="#871E35"/>
<path d="M229.016 273.775C229.016 241.599 234.806 219.079 246.385 206.215C257.964 193.35 275.609 186.922 299.321 186.932C310.703 186.932 320.054 188.339 327.373 191.154C334.022 193.55 340.11 197.281 345.262 202.119C349.605 206.265 353.284 211.055 356.17 216.32C359.026 221.818 361.178 227.653 362.575 233.689C365.757 246.583 367.345 259.819 367.304 273.099C367.304 303.802 362.11 326.27 351.723 340.505C341.335 354.74 323.446 361.862 298.054 361.871C283.81 361.871 272.302 359.6 263.528 355.059C254.684 350.443 247.235 343.548 241.951 335.086C237.869 328.856 234.693 320.331 232.422 309.512C230.065 297.748 228.923 285.772 229.016 273.775ZM275.661 273.888C275.661 295.469 277.561 310.187 281.361 318.041C285.162 325.895 290.684 329.841 297.928 329.878C300.226 329.904 302.507 329.473 304.639 328.611C306.77 327.748 308.708 326.471 310.342 324.853C313.851 321.504 316.432 316.211 318.083 308.977C319.735 301.742 320.56 290.482 320.56 275.197C320.56 252.733 318.656 237.63 314.846 229.889C311.036 222.148 305.322 218.282 297.702 218.291C289.933 218.291 284.303 222.237 280.812 230.128C277.322 238.02 275.605 252.606 275.661 273.888Z" fill="#871E35"/>
<path d="M467.504 327.444H381.857V288.78L467.504 186.961H508.491V290.976H529.801V327.444H508.491V359.085H467.504V327.444ZM467.504 290.976V237.716L422.253 290.976H467.504Z" fill="#871E35"/>
<g opacity="0.3">
<path d="M227.186 127.548C227.186 128.069 227.031 128.579 226.741 129.012C226.452 129.445 226.04 129.782 225.558 129.981C225.076 130.18 224.546 130.231 224.035 130.128C223.524 130.026 223.055 129.774 222.688 129.404C222.32 129.035 222.071 128.564 221.971 128.053C221.871 127.541 221.925 127.012 222.126 126.531C222.328 126.05 222.667 125.64 223.102 125.353C223.537 125.065 224.047 124.913 224.568 124.916C224.913 124.916 225.255 124.984 225.573 125.117C225.892 125.249 226.181 125.443 226.424 125.688C226.667 125.932 226.86 126.223 226.991 126.542C227.121 126.861 227.188 127.203 227.186 127.548Z" fill="#871E35"/>
<path d="M46.9829 228.651C48.009 228.651 48.8408 227.82 48.8408 226.793C48.8408 225.767 48.009 224.936 46.9829 224.936C45.9568 224.936 45.125 225.767 45.125 226.793C45.125 227.82 45.9568 228.651 46.9829 228.651Z" fill="#871E35"/>
<path d="M353.933 499.977C355.402 499.977 356.593 498.786 356.593 497.316C356.593 495.847 355.402 494.656 353.933 494.656C352.463 494.656 351.272 495.847 351.272 497.316C351.272 498.786 352.463 499.977 353.933 499.977Z" fill="#871E35"/>
<path d="M417.904 391.737C418.93 391.737 419.762 390.906 419.762 389.879C419.762 388.853 418.93 388.021 417.904 388.021C416.878 388.021 416.046 388.853 416.046 389.879C416.046 390.906 416.878 391.737 417.904 391.737Z" fill="#871E35"/>
<path d="M541.3 57.1743C541.3 57.5418 541.191 57.901 540.987 58.2065C540.783 58.5121 540.492 58.7502 540.153 58.8908C539.813 59.0314 539.44 59.0682 539.079 58.9965C538.719 58.9248 538.388 58.7479 538.128 58.4881C537.868 58.2282 537.691 57.8972 537.62 57.5368C537.548 57.1764 537.585 56.8028 537.725 56.4633C537.866 56.1238 538.104 55.8337 538.41 55.6295C538.715 55.4254 539.074 55.3164 539.442 55.3164C539.935 55.3164 540.407 55.5122 540.756 55.8606C541.104 56.209 541.3 56.6816 541.3 57.1743Z" fill="#871E35"/>
<path d="M187.424 19.7056C187.424 20.073 187.315 20.4322 187.111 20.7378C186.907 21.0433 186.616 21.2814 186.277 21.4221C185.937 21.5627 185.564 21.5995 185.203 21.5278C184.843 21.4561 184.512 21.2791 184.252 21.0193C183.992 20.7595 183.815 20.4284 183.744 20.068C183.672 19.7076 183.709 19.3341 183.849 18.9946C183.99 18.6551 184.228 18.3649 184.534 18.1608C184.839 17.9566 185.198 17.8477 185.566 17.8477C186.058 17.8513 186.528 18.0483 186.876 18.3959C187.223 18.7435 187.42 19.214 187.424 19.7056Z" fill="#871E35"/>
<path d="M335.142 117.19C336.168 117.19 337 116.359 337 115.333C337 114.306 336.168 113.475 335.142 113.475C334.116 113.475 333.284 114.306 333.284 115.333C333.284 116.359 334.116 117.19 335.142 117.19Z" fill="#871E35"/>
</g>
<path d="M143.059 117.204C160.091 117.204 173.898 103.398 173.898 86.3659C173.898 69.3342 160.091 55.5273 143.059 55.5273C126.028 55.5273 112.221 69.3342 112.221 86.3659C112.221 103.398 126.028 117.204 143.059 117.204Z" fill="#871E35"/>
<path opacity="0.7" d="M143.059 117.204C160.091 117.204 173.898 103.398 173.898 86.3659C173.898 69.3342 160.091 55.5273 143.059 55.5273C126.028 55.5273 112.221 69.3342 112.221 86.3659C112.221 103.398 126.028 117.204 143.059 117.204Z" fill="white"/>
<path opacity="0.2" d="M132.433 63.0998C128.233 63.0869 124.075 63.9347 120.216 65.591C115.473 70.8043 112.657 77.4845 112.238 84.5203C111.819 91.556 113.822 98.5231 117.913 104.262C122.004 110.002 127.937 114.167 134.725 116.066C141.512 117.965 148.745 117.483 155.221 114.699C159.235 110.275 161.879 104.78 162.831 98.882C163.783 92.984 163.002 86.9365 160.583 81.4739C158.164 76.0112 154.211 71.3684 149.204 68.1092C144.197 64.85 138.351 63.1147 132.377 63.1138L132.433 63.0998Z" fill="#871E35"/>
<path opacity="0.2" d="M129.364 71.2486C129.364 71.8054 129.199 72.3496 128.89 72.8125C128.581 73.2755 128.141 73.6363 127.627 73.8493C127.112 74.0624 126.546 74.1182 126 74.0095C125.454 73.9009 124.953 73.6328 124.559 73.2391C124.165 72.8454 123.897 72.3438 123.788 71.7978C123.68 71.2517 123.736 70.6857 123.949 70.1713C124.162 69.657 124.523 69.2173 124.985 68.908C125.448 68.5987 125.993 68.4336 126.549 68.4336C127.296 68.4336 128.012 68.7302 128.54 69.2581C129.068 69.786 129.364 70.502 129.364 71.2486Z" fill="#871E35"/>
<path opacity="0.2" d="M162.526 68.4342C162.526 68.9909 162.36 69.5352 162.051 69.9981C161.742 70.461 161.302 70.8218 160.788 71.0349C160.273 71.248 159.707 71.3037 159.161 71.1951C158.615 71.0865 158.114 70.8184 157.72 70.4247C157.326 70.031 157.058 69.5294 156.95 68.9833C156.841 68.4373 156.897 67.8713 157.11 67.3569C157.323 66.8425 157.684 66.4029 158.147 66.0936C158.61 65.7842 159.154 65.6191 159.711 65.6191C160.457 65.6191 161.173 65.9157 161.701 66.4436C162.229 66.9716 162.526 67.6876 162.526 68.4342Z" fill="#871E35"/>
<path opacity="0.2" d="M156.895 88.5326C156.895 89.4457 156.625 90.3383 156.117 91.0975C155.61 91.8567 154.889 92.4484 154.045 92.7979C153.202 93.1473 152.274 93.2387 151.378 93.0606C150.483 92.8824 149.66 92.4427 149.014 91.7971C148.369 91.1514 147.929 90.3288 147.751 89.4333C147.573 88.5378 147.664 87.6095 148.014 86.7659C148.363 85.9224 148.955 85.2013 149.714 84.6941C150.473 84.1868 151.366 83.916 152.279 83.916C153.503 83.916 154.677 84.4024 155.543 85.2682C156.409 86.134 156.895 87.3082 156.895 88.5326Z" fill="#871E35"/>
<path opacity="0.2" d="M142.229 101.692C142.229 102.912 141.868 104.103 141.19 105.117C140.513 106.131 139.55 106.921 138.424 107.388C137.297 107.854 136.057 107.977 134.862 107.739C133.666 107.501 132.567 106.914 131.705 106.051C130.843 105.189 130.256 104.091 130.018 102.895C129.78 101.699 129.902 100.46 130.369 99.333C130.835 98.2065 131.625 97.2437 132.639 96.5663C133.653 95.8889 134.845 95.5273 136.064 95.5273C137.699 95.5273 139.267 96.1769 140.424 97.333C141.58 98.4891 142.229 100.057 142.229 101.692Z" fill="#871E35"/>
<path d="M508.547 458.35C511.981 443.801 502.971 429.224 488.422 425.79C473.873 422.356 459.296 431.367 455.862 445.915C452.428 460.464 461.439 475.041 475.987 478.475C490.536 481.909 505.113 472.899 508.547 458.35Z" fill="#871E35"/>
<path opacity="0.3" d="M508.547 458.35C511.981 443.801 502.971 429.224 488.422 425.79C473.873 422.356 459.296 431.367 455.862 445.915C452.428 460.464 461.439 475.041 475.987 478.475C490.536 481.909 505.113 472.899 508.547 458.35Z" fill="white"/>
<path opacity="0.4" d="M499.3 431.177C493.3 429.366 486.857 429.695 481.072 432.107C475.288 434.519 470.52 438.865 467.583 444.402C464.647 449.939 463.724 456.323 464.973 462.465C466.222 468.607 469.564 474.125 474.429 478.076C476.953 478.842 479.575 479.231 482.213 479.23C487.8 479.229 493.251 477.498 497.816 474.275C502.381 471.053 505.836 466.497 507.709 461.232C509.581 455.967 509.778 450.252 508.272 444.871C506.766 439.489 503.632 434.706 499.3 431.177Z" fill="#871E35"/>
<path d="M456.371 460.255C427.474 473.852 449.023 484.338 489.743 469.7C527.45 456.145 541.821 439.058 508.04 444.364C509.856 451.472 462.634 469.868 456.371 460.255Z" fill="#871E35"/>
<path opacity="0.2" d="M498.976 186.959C461.128 212.533 412.132 246.314 398.606 327.443H395.721C408.881 247.214 456.089 212.632 493.951 186.959H498.976Z" fill="black"/>
<path d="M303.191 440.929C279.263 440.929 255.603 430.134 244.076 412.512C236.968 401.618 228.706 378.802 253.309 348.358L255.491 350.131C238.094 371.666 234.885 393.271 246.44 410.978C260.515 432.513 293.719 443.35 322.066 435.637C351.103 427.741 368.725 402.49 370.428 366.36C376.241 242.766 441.901 204.693 489.841 176.895C519.638 159.625 541.159 147.154 536.429 120.82C535.768 117.174 534.318 114.655 531.968 113.107C525.845 109.067 513.881 111.868 500.031 115.091C472.852 121.425 435.638 130.095 413.469 92.388L415.904 90.9805C437.017 126.914 471.6 118.849 499.398 112.375C513.881 109.011 526.38 106.097 533.516 110.784C536.542 112.769 538.4 115.907 539.146 120.355C544.227 148.618 520.848 162.186 491.22 179.358C443.829 206.833 378.943 244.455 373.201 366.557C371.427 403.996 353.045 430.19 322.755 438.424C316.374 440.123 309.795 440.966 303.191 440.929Z" fill="#871E35"/>
<path opacity="0.2" d="M303.191 440.929C279.263 440.929 255.603 430.134 244.076 412.512C236.968 401.618 228.706 378.802 253.309 348.358L255.491 350.131C238.094 371.666 234.885 393.271 246.44 410.978C260.515 432.513 293.719 443.35 322.066 435.637C351.103 427.741 368.725 402.49 370.428 366.36C376.241 242.766 441.901 204.693 489.841 176.895C519.638 159.625 541.159 147.154 536.429 120.82C535.768 117.174 534.318 114.655 531.968 113.107C525.845 109.067 513.881 111.868 500.031 115.091C472.852 121.425 435.638 130.095 413.469 92.388L415.904 90.9805C437.017 126.914 471.6 118.849 499.398 112.375C513.881 109.011 526.38 106.097 533.516 110.784C536.542 112.769 538.4 115.907 539.146 120.355C544.227 148.618 520.848 162.186 491.22 179.358C443.829 206.833 378.943 244.455 373.201 366.557C371.427 403.996 353.045 430.19 322.755 438.424C316.374 440.123 309.795 440.966 303.191 440.929Z" fill="white"/>
<path d="M384.489 59.1152C390.975 59.1527 397.418 60.1632 403.603 62.1132C403.603 62.1132 419.086 88.5322 420.916 94.5845C420.268 100.552 410.204 110.334 410.204 110.334L384.489 59.1152Z" fill="#871E35"/>
<path opacity="0.3" d="M384.489 59.1152C390.975 59.1527 397.418 60.1632 403.603 62.1132C403.603 62.1132 419.086 88.5322 420.916 94.5845C420.268 100.552 410.204 110.334 410.204 110.334L384.489 59.1152Z" fill="white"/>
<path d="M430.345 187.381C424.383 180.09 418.946 172.386 414.075 164.326C412.892 162.29 411.771 160.216 410.711 158.105C410.105 156.908 409.528 155.712 408.965 154.501C408.226 153.323 407.653 152.049 407.262 150.715C405.573 132.882 411.682 119.75 405.855 105.436L382.659 114.5C382.659 114.5 384.629 140.004 389.133 155.318C391.949 164.79 398.254 172.982 404.349 180.568C406.249 182.933 408.079 185.368 409.979 187.747C411.879 190.125 413.793 192.054 415.609 194.292C418.353 197.684 419.254 200.935 417.185 204.932L416.833 205.566C416.242 206.607 419.001 207.79 420.746 205.566C423.561 201.934 423.167 202.16 425.616 199.063C427.108 197.191 428.811 195.15 430.289 193.433C431.002 192.589 431.398 191.522 431.408 190.417C431.418 189.312 431.042 188.238 430.345 187.381Z" fill="#871E35"/>
<path opacity="0.7" d="M430.345 187.381C424.383 180.09 418.946 172.386 414.075 164.326C412.892 162.29 411.771 160.216 410.711 158.105C410.105 156.908 409.528 155.712 408.965 154.501C408.226 153.323 407.653 152.049 407.262 150.715C405.573 132.882 411.682 119.75 405.855 105.436L382.659 114.5C382.659 114.5 384.629 140.004 389.133 155.318C391.949 164.79 398.254 172.982 404.349 180.568C406.249 182.933 408.079 185.368 409.979 187.747C411.879 190.125 413.793 192.054 415.609 194.292C418.353 197.684 419.254 200.935 417.185 204.932L416.833 205.566C416.242 206.607 419.001 207.79 420.746 205.566C423.561 201.934 423.167 202.16 425.616 199.063C427.108 197.191 428.811 195.15 430.289 193.433C431.002 192.589 431.398 191.522 431.408 190.417C431.418 189.312 431.042 188.238 430.345 187.381Z" fill="white"/>
<path opacity="0.3" d="M424.673 180.047C420.993 183.992 416.907 187.54 412.484 190.631C413.09 191.307 413.681 192.039 414.286 192.686C418.714 189.695 422.736 186.142 426.25 182.116L424.673 180.047Z" fill="#871E35"/>
<path opacity="0.3" d="M430.345 187.381L430.177 187.184C429.093 188.426 428.463 189.999 428.389 191.645C428.298 192.775 428.482 193.91 428.924 194.953L430.261 193.363C430.96 192.527 431.35 191.476 431.365 190.387C431.381 189.297 431.02 188.236 430.345 187.381Z" fill="#871E35"/>
<path d="M378.971 76.0043C376.456 79.7696 373.44 83.1743 370.005 86.1243C368.101 87.766 366.013 89.1828 363.784 90.3468C362.613 90.9469 361.399 91.4597 360.153 91.881L359.196 92.1907L358.886 92.2751L358.224 92.4581C357.817 92.5547 357.403 92.6206 356.986 92.6551C355.798 92.746 354.604 92.6365 353.453 92.3314C352.001 91.9194 350.61 91.3184 349.315 90.5439C348.273 89.9347 347.263 89.2723 346.289 88.5593C344.529 87.2504 342.847 85.8405 341.25 84.3368C338.171 81.4196 335.346 78.246 332.805 74.8502C332.316 74.1886 332.072 73.377 332.118 72.5554C332.163 71.7338 332.493 70.9537 333.052 70.3498C333.611 69.7458 334.363 69.3559 335.179 69.2473C335.995 69.1388 336.823 69.3183 337.52 69.755H337.633C340.954 71.8662 344.304 74.0901 347.57 76.0747C349.23 77.0459 350.835 78.0311 352.426 78.7912C353.152 79.1713 353.899 79.5097 354.663 79.8046C355.14 80.0149 355.65 80.1388 356.17 80.1705C356.254 80.1705 356.169 80.072 355.649 80.0861C355.485 80.0763 355.32 80.0763 355.156 80.0861L354.846 80.1565L355.311 79.9172C355.936 79.5807 356.543 79.2095 357.127 78.8053C358.386 77.9173 359.564 76.9187 360.645 75.8213C363.104 73.2444 365.407 70.5231 367.542 67.6719C368.712 66.3633 370.328 65.5389 372.074 65.3606C373.82 65.1823 375.57 65.6629 376.98 66.7081C378.39 67.7533 379.359 69.2876 379.696 71.01C380.033 72.7325 379.714 74.5188 378.802 76.0184L378.971 76.0043Z" fill="#871E35"/>
<path opacity="0.7" d="M378.971 76.0043C376.456 79.7696 373.44 83.1743 370.005 86.1243C368.101 87.766 366.013 89.1828 363.784 90.3468C362.613 90.9469 361.399 91.4597 360.153 91.881L359.196 92.1907L358.886 92.2751L358.224 92.4581C357.817 92.5547 357.403 92.6206 356.986 92.6551C355.798 92.746 354.604 92.6365 353.453 92.3314C352.001 91.9194 350.61 91.3184 349.315 90.5439C348.273 89.9347 347.263 89.2723 346.289 88.5593C344.529 87.2504 342.847 85.8405 341.25 84.3368C338.171 81.4196 335.346 78.246 332.805 74.8502C332.316 74.1886 332.072 73.377 332.118 72.5554C332.163 71.7338 332.493 70.9537 333.052 70.3498C333.611 69.7458 334.363 69.3559 335.179 69.2473C335.995 69.1388 336.823 69.3183 337.52 69.755H337.633C340.954 71.8662 344.304 74.0901 347.57 76.0747C349.23 77.0459 350.835 78.0311 352.426 78.7912C353.152 79.1713 353.899 79.5097 354.663 79.8046C355.14 80.0149 355.65 80.1388 356.17 80.1705C356.254 80.1705 356.169 80.072 355.649 80.0861C355.485 80.0763 355.32 80.0763 355.156 80.0861L354.846 80.1565L355.311 79.9172C355.936 79.5807 356.543 79.2095 357.127 78.8053C358.386 77.9173 359.564 76.9187 360.645 75.8213C363.104 73.2444 365.407 70.5231 367.542 67.6719C368.712 66.3633 370.328 65.5389 372.074 65.3606C373.82 65.1823 375.57 65.6629 376.98 66.7081C378.39 67.7533 379.359 69.2876 379.696 71.01C380.033 72.7325 379.714 74.5188 378.802 76.0184L378.971 76.0043Z" fill="white"/>
<path d="M327.527 66.7432L329.174 69.5583C329.174 69.5583 330.427 73.2459 332.946 73.9215L339.787 71.7117L339.435 71.1347C338.562 69.8116 338.661 67.2359 338.956 65.0965C339.252 62.957 338.154 62.8867 337.338 63.4215C336.759 64.087 336.353 64.8845 336.155 65.7439C335.82 65.2791 335.448 64.8414 335.043 64.4349L332.96 62.3518C332.523 61.9247 331.941 61.6786 331.33 61.6629C330.719 61.6472 330.125 61.8632 329.667 62.2674L327.978 63.7734C327.577 64.144 327.314 64.6398 327.232 65.1794C327.15 65.7191 327.254 66.2705 327.527 66.7432Z" fill="#871E35"/>
<path opacity="0.7" d="M327.527 66.7432L329.174 69.5583C329.174 69.5583 330.427 73.2459 332.946 73.9215L339.787 71.7117L339.435 71.1347C338.562 69.8116 338.661 67.2359 338.956 65.0965C339.252 62.957 338.154 62.8867 337.338 63.4215C336.759 64.087 336.353 64.8845 336.155 65.7439C335.82 65.2791 335.448 64.8414 335.043 64.4349L332.96 62.3518C332.523 61.9247 331.941 61.6786 331.33 61.6629C330.719 61.6472 330.125 61.8632 329.667 62.2674L327.978 63.7734C327.577 64.144 327.314 64.6398 327.232 65.1794C327.15 65.7191 327.254 66.2705 327.527 66.7432Z" fill="white"/>
<path d="M391.4 56.6095C383.812 58.6206 376.545 61.686 369.809 65.716C368.758 66.3737 367.933 67.3369 367.445 68.4765C366.957 69.6161 366.829 70.8777 367.078 72.0921C369.795 85.3789 375.974 103.17 382.645 114.5L413.765 101.622C413.976 96.1323 406.418 78.3696 398.719 61.1979C397.34 58.1155 394.679 55.8213 391.4 56.6095Z" fill="#871E35"/>
<path opacity="0.8" d="M391.4 56.6095C383.812 58.6206 376.545 61.686 369.809 65.716C368.758 66.3737 367.933 67.3369 367.445 68.4765C366.957 69.6161 366.829 70.8777 367.078 72.0921C369.795 85.3789 375.974 103.17 382.645 114.5L413.765 101.622C413.976 96.1323 406.418 78.3696 398.719 61.1979C397.34 58.1155 394.679 55.8213 391.4 56.6095Z" fill="white"/>
<path opacity="0.3" d="M403.546 72.0788L397.367 70.0098C398.775 73.6271 403.743 78.2015 407.22 80.8898C406.094 78.0748 404.841 75.119 403.546 72.0788Z" fill="#871E35"/>
<path d="M389.359 42.6749C386.783 37.7768 381.223 35.3137 374.552 35.8626C368.922 36.3411 363.939 42.0838 364.53 45.1803C365.121 48.2768 369.851 49.5999 370.751 50.6696L366.853 53.4846C366.391 53.818 366.001 54.2413 365.707 54.7292C365.413 55.2171 365.221 55.7594 365.142 56.3235C365.063 56.8876 365.099 57.4619 365.248 58.0117C365.397 58.5615 365.655 59.0755 366.008 59.5228C367.655 61.6059 369.822 63.7453 371.075 65.3217C381.857 65.0402 389.837 60.9303 392.723 56.9752C391.639 51.9645 391.864 47.5449 389.359 42.6749Z" fill="#871E35"/>
<path opacity="0.8" d="M389.359 42.6749C386.783 37.7768 381.223 35.3137 374.552 35.8626C368.922 36.3411 363.939 42.0838 364.53 45.1803C365.121 48.2768 369.851 49.5999 370.751 50.6696L366.853 53.4846C366.391 53.818 366.001 54.2413 365.707 54.7292C365.413 55.2171 365.221 55.7594 365.142 56.3235C365.063 56.8876 365.099 57.4619 365.248 58.0117C365.397 58.5615 365.655 59.0755 366.008 59.5228C367.655 61.6059 369.822 63.7453 371.075 65.3217C381.857 65.0402 389.837 60.9303 392.723 56.9752C391.639 51.9645 391.864 47.5449 389.359 42.6749Z" fill="white"/>
<path d="M384.066 45.7156C384.832 47.6785 384.998 49.8243 384.544 51.8817C384.09 53.9391 383.036 55.8157 381.516 57.2744C379.996 58.7331 378.077 59.7083 376.003 60.0768C373.928 60.4453 371.791 60.1906 369.862 59.3448C367.932 58.499 366.297 57.1001 365.162 55.3249C364.027 53.5497 363.444 51.478 363.487 49.3715C363.529 47.2651 364.195 45.2185 365.4 43.4905C366.606 41.7625 368.296 40.4306 370.258 39.6633C372.892 38.6372 375.826 38.6983 378.414 39.833C381.003 40.9678 383.036 43.0835 384.066 45.7156Z" fill="#263238"/>
<path d="M475.456 172.56C475.301 167.929 475.09 168.337 474.963 164.438C474.879 162.045 474.865 159.385 474.851 157.091C474.846 156.002 474.465 154.947 473.773 154.106C473.08 153.265 472.119 152.688 471.05 152.474C469.193 152.094 467.321 151.743 465.42 151.348C462.985 150.828 460.579 150.265 458.2 149.575C456.342 149.04 454.512 148.449 452.697 147.787C450.881 147.126 448.84 146.38 446.954 145.507C444.73 144.564 442.534 143.551 440.367 142.495C437.932 141.341 435.525 140.131 433.118 138.906C423.857 123.578 423.66 113.472 413.723 101.621L392.385 111.277C392.385 111.277 408.064 139.089 418.733 150.884C424.884 157.668 434.526 160.736 443.125 162.96C449.333 164.551 455.624 165.775 461.916 166.944C464.365 167.394 467.025 167.563 469.136 169.027C470.698 170.224 471.769 171.951 472.148 173.883C472.242 174.277 472.327 174.671 472.402 175.065C472.669 176.247 475.555 175.346 475.456 172.56Z" fill="#871E35"/>
<path opacity="0.8" d="M475.456 172.56C475.301 167.929 475.09 168.337 474.963 164.438C474.879 162.045 474.865 159.385 474.851 157.091C474.846 156.002 474.465 154.947 473.773 154.106C473.08 153.265 472.119 152.688 471.05 152.474C469.193 152.094 467.321 151.743 465.42 151.348C462.985 150.828 460.579 150.265 458.2 149.575C456.342 149.04 454.512 148.449 452.697 147.787C450.881 147.126 448.84 146.38 446.954 145.507C444.73 144.564 442.534 143.551 440.367 142.495C437.932 141.341 435.525 140.131 433.118 138.906C423.857 123.578 423.66 113.472 413.723 101.621L392.385 111.277C392.385 111.277 408.064 139.089 418.733 150.884C424.884 157.668 434.526 160.736 443.125 162.96C449.333 164.551 455.624 165.775 461.916 166.944C464.365 167.394 467.025 167.563 469.136 169.027C470.698 170.224 471.769 171.951 472.148 173.883C472.242 174.277 472.327 174.671 472.402 175.065C472.669 176.247 475.555 175.346 475.456 172.56Z" fill="white"/>
<path opacity="0.3" d="M464.633 151.165C463.788 150.982 462.944 150.799 462.085 150.588C462.156 155.458 459.875 163.847 459.045 166.394L461.719 166.901C463.472 161.831 464.454 156.526 464.633 151.165Z" fill="#871E35"/>
<path opacity="0.3" d="M474.908 157.091C474.904 156.004 474.525 154.951 473.835 154.11C473.145 153.269 472.187 152.691 471.121 152.474L469.714 152.207C469.94 153.807 470.759 155.264 472.008 156.289C472.812 157.032 473.775 157.581 474.823 157.893C474.908 157.64 474.908 157.359 474.908 157.091Z" fill="#871E35"/>
<path d="M382.082 45.8002C382.645 47.9396 380.252 50.1775 378.352 48.3337C376.578 46.4322 374.638 44.694 372.553 43.14C370.597 41.9155 373.2 39.7761 376.283 40.6065C377.598 40.9369 378.813 41.5824 379.824 42.4872C380.834 43.3921 381.609 44.5291 382.082 45.8002Z" fill="white"/>
<path d="M382.237 113.811C381.252 114.177 383.053 115.866 383.053 115.866C383.053 115.866 402.758 109.124 414.722 102.185C414.751 101.765 414.679 101.344 414.513 100.957C414.347 100.57 414.09 100.229 413.765 99.9609C403.526 105.17 393 109.794 382.237 113.811Z" fill="#871E35"/>
<path opacity="0.5" d="M382.237 113.811C381.252 114.177 383.053 115.866 383.053 115.866C383.053 115.866 402.758 109.124 414.722 102.185C414.751 101.765 414.679 101.344 414.513 100.957C414.347 100.57 414.09 100.229 413.765 99.9609C403.526 105.17 393 109.794 382.237 113.811Z" fill="white"/>
<path d="M396.734 55.6811C400.618 57.6516 404.264 59.7206 407.994 62.0148C409.809 63.169 411.611 64.3372 413.399 65.604C415.186 66.8708 416.96 68.1657 418.747 69.6295L419.409 70.1784L420.239 70.9385C420.734 71.3812 421.204 71.8511 421.647 72.346C422.097 72.8386 422.477 73.3172 422.843 73.7535C423.209 74.1898 423.603 74.7106 423.927 75.161C425.238 76.9705 426.451 78.8499 427.558 80.791C429.74 84.5552 431.622 88.4848 433.188 92.5437C433.478 93.3106 433.493 94.1541 433.231 94.9307C432.968 95.7074 432.445 96.3693 431.75 96.8039C431.055 97.2385 430.231 97.419 429.418 97.3146C428.605 97.2102 427.853 96.8275 427.291 96.2314L427.22 96.147C424.405 93.149 421.689 89.9961 418.958 87.0544C416.228 84.1127 413.455 81.1288 411.161 79.8198C407.966 77.8353 404.405 75.8507 400.872 73.9083L390.231 67.9968C388.581 67.1233 387.346 65.6301 386.797 63.8457C386.248 62.0613 386.43 60.132 387.303 58.482C388.177 56.832 389.67 55.5967 391.454 55.0476C393.239 54.4986 395.168 54.6809 396.818 55.5544L396.734 55.6811Z" fill="#871E35"/>
<path opacity="0.8" d="M396.734 55.6811C400.618 57.6516 404.264 59.7206 407.994 62.0148C409.809 63.169 411.611 64.3372 413.399 65.604C415.186 66.8708 416.96 68.1657 418.747 69.6295L419.409 70.1784L420.239 70.9385C420.734 71.3812 421.204 71.8511 421.647 72.346C422.097 72.8386 422.477 73.3172 422.843 73.7535C423.209 74.1898 423.603 74.7106 423.927 75.161C425.238 76.9705 426.451 78.8499 427.558 80.791C429.74 84.5552 431.622 88.4848 433.188 92.5437C433.478 93.3106 433.493 94.1541 433.231 94.9307C432.968 95.7074 432.445 96.3693 431.75 96.8039C431.055 97.2385 430.231 97.419 429.418 97.3146C428.605 97.2102 427.853 96.8275 427.291 96.2314L427.22 96.147C424.405 93.149 421.689 89.9961 418.958 87.0544C416.228 84.1127 413.455 81.1288 411.161 79.8198C407.966 77.8353 404.405 75.8507 400.872 73.9083L390.231 67.9968C388.581 67.1233 387.346 65.6301 386.797 63.8457C386.248 62.0613 386.43 60.132 387.303 58.482C388.177 56.832 389.67 55.5967 391.454 55.0476C393.239 54.4986 395.168 54.6809 396.818 55.5544L396.734 55.6811Z" fill="white"/>
<path d="M436.525 99.566L435.328 96.5681C435.328 96.5681 434.667 92.7396 432.288 91.6699L425.251 92.7819L425.49 93.4012C426.137 94.8087 425.645 97.3844 425.011 99.4394C424.378 101.494 425.448 101.762 426.349 101.354C426.855 101.128 427.348 100.214 427.883 99.2423C428.145 99.7316 428.441 100.202 428.769 100.65L430.501 103.029C430.862 103.521 431.397 103.859 431.998 103.974C432.598 104.089 433.22 103.972 433.738 103.648L435.652 102.423C436.1 102.117 436.431 101.667 436.589 101.148C436.748 100.628 436.725 100.071 436.525 99.566Z" fill="#871E35"/>
<path opacity="0.8" d="M436.525 99.566L435.328 96.5681C435.328 96.5681 434.667 92.7396 432.288 91.6699L425.251 92.7819L425.49 93.4012C426.137 94.8087 425.645 97.3844 425.011 99.4394C424.378 101.494 425.448 101.762 426.349 101.354C426.855 101.128 427.348 100.214 427.883 99.2423C428.145 99.7316 428.441 100.202 428.769 100.65L430.501 103.029C430.862 103.521 431.397 103.859 431.998 103.974C432.598 104.089 433.22 103.972 433.738 103.648L435.652 102.423C436.1 102.117 436.431 101.667 436.589 101.148C436.748 100.628 436.725 100.071 436.525 99.566Z" fill="white"/>
<path opacity="0.3" d="M390.795 71.8672L389.077 72.0079L378.535 97.4557C379.111 97.4972 379.691 97.4497 380.252 97.315C380.252 97.315 393.99 92.1916 398.142 90.2774C395.355 84.5207 390.795 71.8672 390.795 71.8672Z" fill="#871E35"/>
<path d="M371.554 78.5387C372.835 85.1908 375.213 91.5837 378.591 97.4556C383.743 95.6821 392.329 92.3322 396.495 90.418C393.695 84.4149 391.209 78.2698 389.049 72.0078C384.644 72.3034 374.974 76.0051 371.554 78.5387Z" fill="white"/>
<path opacity="0.3" d="M382.012 84.0406C381.806 84.7289 381.401 85.3407 380.847 85.7986C380.294 86.2565 379.617 86.54 378.902 86.6131C378.188 86.6861 377.467 86.5456 376.832 86.2092C376.198 85.8728 375.677 85.3557 375.336 84.7233C374.995 84.0909 374.85 83.3716 374.918 82.6565C374.986 81.9413 375.264 81.2624 375.718 80.7056C376.172 80.1489 376.781 79.7393 377.468 79.5287C378.155 79.3181 378.889 79.3159 379.577 79.5225C380.499 79.7993 381.273 80.4305 381.729 81.2777C382.186 82.1249 382.288 83.1186 382.012 84.0406Z" fill="#871E35"/>
<path opacity="0.6" d="M384.7 79.1989C384.645 79.4338 384.521 79.6467 384.343 79.8095C384.165 79.9724 383.942 80.0776 383.703 80.1114C383.464 80.1452 383.22 80.106 383.004 79.9989C382.788 79.8919 382.609 79.7219 382.491 79.5114C382.374 79.3009 382.322 79.0597 382.344 78.8194C382.365 78.5791 382.459 78.351 382.613 78.165C382.766 77.979 382.973 77.8437 383.205 77.7771C383.437 77.7104 383.683 77.7154 383.912 77.7914C384.197 77.8826 384.437 78.0786 384.584 78.3398C384.73 78.6011 384.772 78.9081 384.7 79.1989Z" fill="#871E35"/>
<path opacity="0.6" d="M387.852 77.975C387.819 78.1383 387.753 78.2929 387.656 78.4289C387.56 78.5648 387.437 78.6792 387.294 78.7647C387.151 78.8502 386.991 78.9048 386.826 78.9252C386.661 78.9455 386.493 78.9311 386.333 78.8829C386.174 78.8347 386.026 78.7537 385.9 78.6451C385.774 78.5365 385.671 78.4027 385.6 78.2524C385.528 78.102 385.489 77.9383 385.484 77.7718C385.479 77.6052 385.509 77.4396 385.572 77.2853C385.617 77.1364 385.691 76.9978 385.79 76.8775C385.889 76.7573 386.01 76.6576 386.148 76.5844C386.285 76.5112 386.435 76.4658 386.59 76.4508C386.745 76.4358 386.901 76.4516 387.05 76.4971C387.351 76.5884 387.605 76.7947 387.755 77.0714C387.905 77.348 387.94 77.6727 387.852 77.975Z" fill="#871E35"/>
<path opacity="0.5" d="M392.272 88.9406L379.253 94.078L378.479 91.5163L391.484 86.3789L392.272 88.9406Z" fill="#871E35"/>
<path opacity="0.2" d="M320.447 284.557C320.417 292.753 319.625 300.928 318.082 308.978C316.422 316.212 313.841 321.504 310.341 324.854C308.711 326.473 306.775 327.75 304.646 328.613C302.517 329.476 300.238 329.906 297.941 329.879C290.706 329.879 285.184 325.933 281.375 318.042C280.705 316.624 280.136 315.162 279.671 313.665C271.626 320.575 264.134 328.104 257.264 336.185L249.79 344.996C253.812 349.072 258.453 352.488 263.541 355.116C272.306 359.648 283.81 361.919 298.054 361.928C300.559 361.928 302.98 361.858 305.33 361.717C313.948 348.966 321.079 335.271 326.584 320.899L347.485 266.4L320.447 284.557Z" fill="black"/>
<path d="M132.024 358.916L156.656 383.547L225.624 318.563C201.851 309.484 155.628 335.256 132.024 358.916Z" fill="#263238"/>
<path d="M217.924 444.773C210.056 436.891 193.293 420.142 193.293 420.142L258.278 351.174C267.3 374.89 241.528 421.155 217.924 444.773Z" fill="#263238"/>
<path d="M312.199 289.525L339.069 237.715L287.258 264.612C270.617 273.243 255.251 284.138 241.599 296.985L153.278 380.127L196.671 423.52L279.813 335.199C292.666 321.543 303.565 306.173 312.199 289.525Z" fill="#871E35"/>
<path opacity="0.6" d="M312.199 289.525L339.069 237.715L287.258 264.612C270.617 273.243 255.251 284.138 241.599 296.985L153.278 380.127L196.671 423.52L279.813 335.199C292.666 321.543 303.565 306.173 312.199 289.525Z" fill="white"/>
<path d="M257.025 337.915C267.053 337.915 275.182 329.786 275.182 319.758C275.182 309.731 267.053 301.602 257.025 301.602C246.997 301.602 238.868 309.731 238.868 319.758C238.868 329.786 246.997 337.915 257.025 337.915Z" fill="white"/>
<path d="M257.025 331.426C263.469 331.426 268.693 326.202 268.693 319.758C268.693 313.314 263.469 308.09 257.025 308.09C250.58 308.09 245.356 313.314 245.356 319.758C245.356 326.202 250.58 331.426 257.025 331.426Z" fill="#871E35"/>
<path opacity="0.3" d="M211.351 407.925L168.858 365.432L203.652 332.693L244.09 373.145L211.351 407.925Z" fill="#871E35"/>
<path d="M141.637 397.791C109.828 400.367 99.2855 420.733 95.6823 447.8C93.8525 461.607 93.0362 475.584 81.4524 483.663C80.7555 484.137 80.2308 484.823 79.9569 485.62C79.683 486.417 79.6746 487.281 79.9329 488.083C80.1913 488.885 80.7025 489.582 81.39 490.069C82.0775 490.556 82.9043 490.807 83.7466 490.785C126.45 489.448 146.367 468.547 148.872 459.82C148.214 464.382 147.039 468.854 145.367 473.149C145.06 473.907 145 474.743 145.195 475.537C145.391 476.331 145.832 477.043 146.456 477.572C147.08 478.101 147.855 478.419 148.67 478.482C149.486 478.544 150.3 478.348 150.997 477.921C162.975 470.418 178.007 456.597 179.007 434.175C170.196 421.691 141.637 397.791 141.637 397.791Z" fill="#871E35"/>
<path opacity="0.2" d="M141.637 397.791C109.828 400.367 99.2855 420.733 95.6823 447.8C93.8525 461.607 93.0362 475.584 81.4524 483.663C80.7555 484.137 80.2308 484.823 79.9569 485.62C79.683 486.417 79.6746 487.281 79.9329 488.083C80.1913 488.885 80.7025 489.582 81.39 490.069C82.0775 490.556 82.9043 490.807 83.7466 490.785C126.45 489.448 146.367 468.547 148.872 459.82C148.214 464.382 147.039 468.854 145.367 473.149C145.06 473.907 145 474.743 145.195 475.537C145.391 476.331 145.832 477.043 146.456 477.572C147.08 478.101 147.855 478.419 148.67 478.482C149.486 478.544 150.3 478.348 150.997 477.921C162.975 470.418 178.007 456.597 179.007 434.175C170.196 421.691 141.637 397.791 141.637 397.791Z" fill="white"/>
<path d="M183.947 443.788L132.995 392.836L160.132 386.967L189.816 416.651L183.947 443.788Z" fill="#871E35"/>
</svg>
