<svg width="251" height="236" viewBox="0 0 251 236" fill="none" xmlns="http://www.w3.org/2000/svg">
<path d="M24.3025 233.65C16.2688 233.897 9.97852 227.894 9.97852 219.989V56.4625C9.97852 48.3793 16.665 41.8414 24.8869 41.8909L228.355 42.9409C228.434 42.9409 228.483 42.9409 228.553 42.9409C235.249 43.1093 240.648 49.1024 240.648 56.304V200.93C240.648 208.092 235.279 214.412 228.632 215.027L25.2138 233.6C24.9067 233.62 24.6096 233.64 24.3025 233.65Z" fill="#A5ACB7"/>
<path d="M27.2553 233.56C19.2315 233.807 12.9512 227.814 12.9512 219.919V56.5111C12.9512 48.4378 19.6278 41.9098 27.8299 41.9494L230.971 42.9994C231.05 42.9994 231.099 42.9994 231.169 42.9994C237.855 43.1579 243.244 49.151 243.244 56.3526V200.86C243.244 208.022 237.885 214.332 231.248 214.946L28.1667 233.51C27.8596 233.53 27.5624 233.55 27.2553 233.56Z" fill="#BFC8D6"/>
<path d="M231.039 211.222L27.8884 229.558C21.9746 230.093 17.1504 225.724 17.1504 219.801V56.5908C17.1504 50.6671 21.9746 45.8825 27.8884 45.9122L231.039 46.7344C235.754 46.7543 239.568 51.0237 239.568 56.2738V200.95C239.558 206.2 235.754 210.796 231.039 211.222Z" fill="#F4F7FA"/>
<path d="M78.5778 190.222L45.7992 192.579C45.4029 192.609 45.0859 192.312 45.0859 191.916V184.021C45.0859 183.624 45.4029 183.278 45.7992 183.258L78.5778 181.059C78.9543 181.029 79.2713 181.326 79.2713 181.722V189.479C79.2713 189.855 78.9642 190.192 78.5778 190.222Z" fill="#D8DEE8"/>
<path d="M171.505 200.118L45.7992 210.321C45.4029 210.351 45.0859 210.053 45.0859 209.657V201.762C45.0859 201.366 45.4029 201.019 45.7992 200.989L171.505 191.401C171.852 191.371 172.129 191.658 172.129 192.025V199.395C172.129 199.761 171.852 200.088 171.505 200.118Z" fill="#D8DEE8"/>
<path d="M43.7772 86.9923C41.9743 88.1315 40.2309 90.5782 40.6271 93.2231C41.0333 95.8977 43.4503 97.5421 45.3522 98.0572C48.0268 98.7704 48.9085 97.027 51.7911 97.2053C56.1398 97.4728 59.5276 101.802 60.9442 105.031C62.331 108.201 61.2512 109.003 62.1428 112.668C63.7178 119.107 68.5915 122.921 73.2275 126.547C77.0908 129.568 82.965 133.164 84.025 131.995C84.4014 131.579 84.0646 130.658 83.8566 130.103C83.0443 127.904 81.182 127.468 78.646 125.467C76.8432 124.05 74.5549 122.257 74.9313 120.752C75.2978 119.276 78.1805 118.265 80.3301 118.83C82.4796 119.404 83.6386 121.485 84.1934 122.495C84.6688 123.357 84.5896 124.496 85.0354 124.536C85.3424 124.565 85.6792 124.09 85.8278 123.684C86.2241 122.654 85.5307 121.683 85.283 120.9C84.7085 119.097 86.0755 117.086 87.4326 115.085C89.701 111.737 91.0285 111.678 94.5351 107.765C96.8729 105.15 98.0517 103.813 98.1805 101.96C98.3984 98.7804 95.7536 96.4822 95.3177 96.0958C93.178 94.2335 89.5426 93.0151 87.9972 94.4217C86.6104 95.6897 88.0666 98.0176 86.442 99.8502C85.3028 101.138 83.3018 101.445 81.7466 100.999C79.5475 100.375 78.2795 98.2851 78.1507 96.3633C78.121 95.9869 78.0121 94.2335 79.1611 92.9953C79.488 92.6387 80.2904 91.9354 82.9749 91.767C86.7491 91.5292 87.5317 92.7675 89.7803 92.2028C91.6525 91.7372 93.9111 90.182 93.8813 88.6862C93.8516 86.9428 90.7115 86.8239 87.1057 82.9606C85.6991 81.4549 84.5599 80.1968 84.649 78.5128C84.7778 76.1552 87.2741 74.2632 87.7694 73.8868C89.711 72.4108 91.4346 71.2122 91.4346 71.2122C91.92 70.8754 92.6233 70.39 92.544 69.9442C92.4945 69.647 92.1082 69.4489 91.4346 69.2706C89.2949 68.6862 87.6604 69.0725 87.6604 69.0725C85.1146 69.6669 84.3023 70.9447 81.182 72.6981C79.9239 73.4014 77.7941 74.6 74.8818 75.3033C71.5633 76.1057 70.4142 75.5014 68.7698 76.7595C67.175 77.9779 67.6802 78.9784 66.0358 80.8506C64.3221 82.8219 62.2121 83.4955 58.9432 84.5654C57.6851 84.9715 55.1591 85.7144 51.6821 86.081C46.7292 86.6258 45.6791 85.7937 43.7772 86.9923Z" fill="#D8DEE8"/>
<path d="M97.9517 70.7068C94.5045 71.6776 91.503 72.5196 90.8789 74.6692C90.552 75.7786 90.8591 77.3041 91.7704 78.0966C93.5832 79.6716 96.3073 77.106 98.2885 78.473C99.3484 79.2061 98.9423 80.1967 100.161 85.6251C100.973 89.2507 101.637 90.9842 102.905 92.5196C103.628 93.3913 104.638 94.6197 105.639 94.3918C107.125 94.0649 106.56 91.0139 108.908 88.7653C109.73 87.9728 109.878 88.2799 113.791 86.2987C116.07 85.1496 117.219 84.5652 117.466 84.0897C118.754 81.6825 115.337 78.8296 116.714 75.9668C116.971 75.4319 117.011 75.7093 118.764 73.4606C120.775 70.8752 120.755 70.4789 120.706 70.2808C120.478 69.4487 118.982 69.3992 115.099 68.9732C108.64 68.26 108.115 67.8836 106.184 68.369C104.906 68.686 104.569 69.003 101.805 69.7657C99.6456 70.37 99.4079 70.3006 97.9517 70.7068Z" fill="#D8DEE8"/>
<path d="M89.2164 131.776C87.3046 133.291 86.9183 135.798 86.7697 136.808C86.3834 139.324 87.1065 140.929 88.4438 144.99C90.0684 149.923 90.8806 152.39 90.9995 153.797C91.1877 155.986 90.7915 156.392 89.2263 165.129C88.0575 171.627 87.9287 173.311 89.0084 174.431C90.5835 176.075 93.9713 175.699 94.11 175.243C94.1793 175.025 93.4463 174.876 92.8915 174.173C91.6632 172.618 92.5448 169.874 92.7826 169.141C93.7038 166.288 95.4572 164.99 98.3002 162.068C101.648 158.621 103.828 156.382 105.432 153.133C106.225 151.518 107.919 147.972 107.394 143.494C107.285 142.593 106.849 139.552 104.66 136.58C101.817 132.717 97.9832 131.627 96.8638 131.33C94.6647 130.765 91.5542 129.923 89.2164 131.776Z" fill="#D8DEE8"/>
<path d="M121.668 114.779C120.439 117.236 119.082 119.96 118.547 122.446C118.072 124.665 117.616 129.688 120.053 131.52C122.262 133.184 124.798 130.708 127.869 132.54C129.434 133.472 130.127 134.918 130.959 136.671C132.752 140.426 131.89 142.575 132.663 147.459C133.02 149.757 134.159 157.038 137.002 157.404C139.369 157.711 141.945 153.085 142.371 152.313C143.51 150.262 143.956 148.162 144.778 144.061C145.897 138.524 145.481 137.781 146.66 136.186C148.176 134.135 150.008 133.838 150.414 131.916C150.712 130.5 150.008 129.271 149.582 128.509C148.017 125.695 145.838 126.102 144.362 123.377C143.51 121.812 143.282 119.93 143.629 119.732C143.936 119.554 144.788 120.683 145.204 121.228C146.472 122.912 146.313 123.536 147.086 124.378C148.641 126.082 151.266 125.686 151.465 125.646C152.663 125.448 154.833 124.645 155.1 123.179C155.308 122.05 154.317 120.891 153.129 119.484C152.168 118.355 151.455 117.88 151.573 117.652C151.692 117.424 152.544 117.682 154.793 118.425C157.23 119.227 158.448 119.623 158.617 119.722C159.439 120.188 160.132 120.832 162.42 124.764C164.738 128.737 165.58 130.747 166.115 130.559C166.373 130.46 166.333 129.905 166.522 128.013C166.809 125.18 166.967 123.744 167.641 122.694C168.215 121.812 169.434 120.594 170.702 120.713C171.465 120.782 172.366 122.001 174.159 124.418C175.922 126.805 176.507 127.607 177.705 128.212C178.329 128.529 179.449 129.093 180.33 128.538C181.311 127.924 181.638 126.151 181.232 124.903C180.746 123.387 179.379 123.298 179.419 122.357C179.478 121.02 182.292 120.029 182.539 119.95C184.352 119.336 184.818 119.94 185.749 119.286C187.126 118.325 187.7 115.879 187.354 114.016C186.997 112.095 185.789 111.421 186.155 110.579C186.462 109.866 187.433 110.084 189.355 109.499C190.781 109.073 192.881 108.429 194.03 106.646C194.714 105.586 194.833 104.467 195.021 102.724C195.051 102.436 195.189 101.099 195.021 99.2566C194.793 96.7206 194.278 96.5522 194.526 95.8093C195.06 94.1649 197.636 94.5611 202.52 92.9267C205.303 91.9955 207.314 90.9158 207.512 91.312C207.76 91.8073 204.501 93.3328 204.283 96.0074C204.114 98.0381 205.749 100.039 206.432 99.8311C206.997 99.6528 206.591 98.0778 207.601 95.7201C207.978 94.8484 208.542 93.5408 209.751 92.6691C211.197 91.6191 212.049 92.3026 213.347 91.1931C214.387 90.3115 214.119 89.628 214.991 88.6968C216.962 86.5968 220.281 87.9737 220.499 87.2011C220.697 86.4878 218.141 84.3184 214.803 83.8826C211.831 83.4962 211.376 84.8831 207.998 84.9623C206.076 85.0119 203.748 84.2194 199.072 82.6344C196.427 81.7429 195.041 81.1188 192.643 81.0099C190.969 80.9306 190.92 81.1981 189.157 81.0594C187.165 80.9108 184.689 80.7226 182.747 78.9791C181.222 77.6121 181.687 76.78 180.439 75.9578C178.409 74.6304 175.625 75.7894 173.258 76.8097C170.741 77.8994 168.958 79.1971 165.917 81.416C162.381 83.9915 161.202 85.2595 159.241 85.0515C157.775 84.893 157.477 84.0807 155.833 84.1104C154.506 84.1401 154.08 84.685 151.375 85.9628C148.75 87.1912 147.413 87.8053 146.264 87.6072C144.491 87.3001 144.421 85.9925 142.49 85.2298C140.429 84.4076 138.468 85.0812 136.061 85.9034C133.089 86.9138 130.157 87.9143 128.74 90.6285C127.235 93.5111 128.631 95.9876 126.928 97.2952C125.511 98.3848 124.065 97.0475 122.757 98.1768C121.182 99.5339 121.648 102.862 121.895 104.616C122.381 108.073 123.589 108.895 123.183 111.332C122.985 112.431 122.668 112.778 121.668 114.779Z" fill="#D8DEE8"/>
<path d="M150.425 142.663C149.691 142.613 148.463 145.793 148.76 148.735C148.78 148.913 149.018 151.192 149.701 151.241C150.335 151.281 150.989 149.369 151.059 149.171C151.167 148.844 151.494 147.774 151.366 146.051C151.326 145.575 151.108 142.702 150.425 142.663Z" fill="#D8DEE8"/>
<path d="M176.585 134.283C176.536 134.421 176.734 134.639 177.309 135.105C178.824 136.333 179.577 136.947 180.825 137.363C181.895 137.72 184.57 138.334 185.144 137.274C185.511 136.591 184.986 135.293 184.144 134.708C183.242 134.084 182.569 134.689 180.429 134.659C178.19 134.629 176.714 133.946 176.585 134.283Z" fill="#D8DEE8"/>
<path d="M184.134 128.29C183.689 128.389 183.808 129.32 182.926 131.39C182.52 132.351 182.292 132.618 182.421 132.935C182.698 133.639 184.392 133.916 185.234 133.025C186.017 132.202 185.66 130.786 185.531 130.291C185.303 129.359 184.66 128.171 184.134 128.29Z" fill="#D8DEE8"/>
<path d="M193.119 135.818C193.456 136.323 194.02 136.947 195.397 137.551C195.883 137.759 199.439 139.305 200.33 137.968C200.697 137.423 200.519 136.551 200.231 136.026C199.796 135.224 198.983 135.055 197.666 134.738C193.733 133.787 192.832 133.282 192.515 133.777C192.158 134.352 192.931 135.541 193.119 135.818Z" fill="#D8DEE8"/>
<path d="M186.442 124.387C185.966 124.565 185.996 126.893 186.838 128.716C187.274 129.667 188.076 130.776 188.433 130.608C188.829 130.42 188.631 128.785 188.334 127.676C187.898 126.031 186.898 124.209 186.442 124.387Z" fill="#D8DEE8"/>
<path d="M190.236 113.273C190.246 112.728 191.494 112.818 193.119 111.659C194.248 110.856 195.903 109.212 196.784 107.003C196.963 106.557 197.141 105.992 197.28 106.012C197.478 106.052 197.507 107.419 197.28 108.608C196.863 110.807 195.516 112.818 193.812 113.808C193.139 114.195 192.644 114.294 192.227 114.294C191.286 114.294 190.226 113.778 190.236 113.273Z" fill="#D8DEE8"/>
<path d="M186.838 145.24C184.649 147.399 183.46 147.082 183.133 148.261C182.767 149.598 184.273 150.113 184.54 152.758C184.708 154.403 184.243 155.364 184.639 155.582C185.233 155.918 186.224 153.68 188.542 152.758C188.72 152.689 191.147 151.758 193.119 152.937C194.268 153.62 194.119 154.333 195.991 156.017C197.19 157.097 197.814 157.632 198.557 157.493C199.795 157.256 200.489 155.314 200.924 154.115C201.281 153.125 202.093 150.866 201.519 148.261C201.271 147.132 201.083 147.409 197.675 142.308C196.734 140.891 196.358 140.287 195.496 139.93C193.752 139.197 191.841 140.277 191.524 140.445C190.84 140.832 190.236 141.466 189.037 142.734C187.611 144.239 187.7 144.388 186.838 145.24Z" fill="#D8DEE8"/>
<path d="M110.138 62.4258C110.138 92.1535 86.889 115.541 57.1811 114.63C26.2648 113.679 0.261719 86.9727 0.261719 55.0261C0.261719 23.0696 26.2648 -0.130047 57.1811 3.08938C86.889 6.18002 110.138 32.6982 110.138 62.4258Z" fill="url(#paint0_linear_2077_20281)"/>
<path d="M118.162 59.8594C118.162 89.5871 94.9124 112.975 65.2046 112.064C34.2882 111.113 8.28516 84.4063 8.28516 52.4597C8.28516 20.5032 34.2882 -2.69645 65.2046 0.522971C94.9223 3.61362 118.162 30.1318 118.162 59.8594Z" fill="url(#paint1_linear_2077_20281)"/>
<path d="M115.835 59.7011C115.835 88.1212 93.5958 110.439 65.2154 109.518C35.7354 108.567 10.9805 83.0791 10.9805 52.6283C10.9805 22.1775 35.7255 0.037755 65.2055 3.05906C93.5958 5.9714 115.835 31.281 115.835 59.7011Z" fill="url(#paint2_linear_2077_20281)"/>
<path d="M114.159 59.5917C114.159 87.0707 92.6334 108.626 65.2039 107.705C36.7442 106.754 12.8809 82.1376 12.8809 52.7665C12.8809 23.3955 36.7442 1.99867 65.2039 4.8813C92.6433 7.65495 114.159 32.1127 114.159 59.5917Z" fill="url(#paint3_linear_2077_20281)"/>
<path d="M64.9283 14.2228C66.3845 14.3615 67.5732 15.679 67.5732 17.155V22.2169C70.4955 22.5438 73.4177 23.049 76.34 23.7424C78.4994 24.2476 80.6391 24.8519 82.7689 25.5552C84.0468 25.9712 84.9185 27.259 84.7798 28.5963L84.1557 34.9361C83.9873 36.6201 82.3231 37.6107 80.758 36.9074C79.3513 36.2833 77.915 35.7484 76.439 35.3026C73.8635 34.5201 71.1592 34.0149 68.2964 33.7771L67.5534 33.7177V48.21C75.1711 50.3398 80.758 53.2026 84.3737 56.8084C87.9695 60.3943 89.7625 64.8718 89.7625 70.2309C89.7625 76.0358 87.7813 80.6816 83.7991 84.1883C79.7971 87.7148 74.1904 89.696 66.9392 90.122V95.7089C66.9392 97.1948 65.7604 98.3439 64.2944 98.2845H64.2448C62.7788 98.225 61.59 96.9769 61.59 95.4811V89.9833L60.4112 89.9338C57.0135 89.7852 53.7545 89.4385 50.644 88.8936C48.3359 88.4974 46.0873 87.9724 43.8981 87.3384C42.5707 86.9521 41.6593 85.694 41.7782 84.327L42.5112 76.1744C42.6697 74.4112 44.4429 73.381 46.117 74.0447C48.0685 74.8173 50.0496 75.4612 52.0506 75.9961C55.171 76.8183 58.331 77.3434 61.5405 77.5811L61.59 61.4642C54.2795 59.6514 48.8114 56.9768 45.2156 53.4305C41.5999 49.8643 39.7871 45.3076 39.7871 39.7504C39.7871 34.005 41.7485 29.577 45.6712 26.4665C49.5643 23.3759 55.1017 21.8306 62.2537 21.8405V16.6696C62.2835 15.1738 63.4623 14.0842 64.9283 14.2228ZM62.2835 33.5691C60.0249 33.7375 58.2617 34.3517 57.0036 35.4314C55.7456 36.5111 55.1116 37.9574 55.1116 39.7801C55.1116 41.5037 55.696 42.95 56.8649 44.0991C58.0338 45.2581 59.8367 46.1793 62.2934 46.8628V33.5691H62.2835ZM66.9591 62.7519V77.5316C69.4157 77.5316 71.2978 76.9471 72.6153 75.7782C73.9229 74.5994 74.5866 72.9451 74.5866 70.8054C74.5866 68.854 73.9823 67.2294 72.754 65.9416C71.5356 64.644 69.6039 63.584 66.9591 62.7519Z" fill="url(#paint4_linear_2077_20281)"/>
<path opacity="0.3" d="M56.348 66.3174C58.0023 49.9825 73.0197 43.0682 71.0583 28.0409C69.8498 18.7789 62.8265 10.973 55.0008 4.88086C31.2464 7.37715 12.8809 27.0404 12.8809 52.7661C12.8809 82.1371 36.7442 106.753 65.2039 107.704C67.9677 107.793 70.6621 107.655 73.2872 107.308C61.9944 96.0648 54.9315 80.3541 56.348 66.3174Z" fill="url(#paint5_linear_2077_20281)"/>
<path d="M242.253 183.17C242.253 212.898 219.004 236.286 189.296 235.374C158.38 234.423 132.377 207.717 132.377 175.77C132.377 143.814 158.38 120.614 189.296 123.834C219.004 126.924 242.253 153.442 242.253 183.17Z" fill="url(#paint6_linear_2077_20281)"/>
<path d="M250.277 180.604C250.277 210.331 227.028 233.719 197.32 232.808C166.403 231.857 140.4 205.15 140.4 173.204C140.4 141.247 166.403 118.048 197.32 121.267C227.028 124.358 250.277 150.876 250.277 180.604Z" fill="url(#paint7_linear_2077_20281)"/>
<path d="M247.95 180.445C247.95 208.865 225.711 231.183 197.331 230.262C167.851 229.311 143.096 203.823 143.096 173.372C143.096 142.922 167.851 120.782 197.331 123.803C225.701 126.716 247.95 152.025 247.95 180.445Z" fill="url(#paint8_linear_2077_20281)"/>
<path d="M246.276 180.336C246.276 207.815 224.751 229.37 197.321 228.449C168.861 227.498 144.998 202.882 144.998 173.511C144.998 144.14 168.861 122.743 197.321 125.625C224.751 128.399 246.276 152.857 246.276 180.336Z" fill="url(#paint9_linear_2077_20281)"/>
<path opacity="0.3" d="M188.465 187.062C190.12 170.727 205.137 163.812 203.176 148.785C201.967 139.523 194.944 131.717 187.118 125.625C163.364 128.111 144.998 147.785 144.998 173.5C144.998 202.871 168.861 227.488 197.321 228.439C200.085 228.528 202.779 228.389 205.404 228.042C194.112 216.809 187.039 201.098 188.465 187.062Z" fill="url(#paint10_linear_2077_20281)"/>
<path d="M205.662 156.493C207.772 156.652 209.832 157.137 211.774 157.89C213.745 158.662 215.865 157.989 216.846 156.305L218.847 152.858C219.431 151.847 219.52 150.589 219.094 149.41C218.668 148.231 217.757 147.241 216.598 146.696C213.19 145.111 209.486 144.051 205.672 143.605C186.197 141.357 168.584 155.275 168.584 174.878C168.584 194.482 186.207 209.054 205.672 207.538C209.159 207.271 212.556 206.468 215.726 205.22C216.905 204.755 217.846 203.814 218.312 202.655C218.777 201.496 218.728 200.238 218.163 199.178L216.261 195.592C215.33 193.838 213.23 193.026 211.229 193.67C209.466 194.244 207.603 194.571 205.672 194.651C194.31 195.096 184.473 186.359 184.473 175.166C184.463 163.992 194.3 155.631 205.662 156.493Z" fill="url(#paint11_linear_2077_20281)"/>
<path d="M202.699 169.024C202.699 170.589 201.362 171.818 199.688 171.768L163.422 170.688C161.352 170.629 159.658 169.143 159.658 167.38C159.658 165.617 161.352 164.26 163.422 164.359L199.688 166.053C201.352 166.122 202.699 167.459 202.699 169.024Z" fill="url(#paint12_linear_2077_20281)"/>
<path d="M202.699 181.932C202.699 183.497 201.362 184.775 199.688 184.794L163.422 185.121C161.352 185.141 159.658 183.725 159.658 181.951C159.658 180.188 161.352 178.762 163.422 178.781L199.688 179.069C201.352 179.089 202.699 180.366 202.699 181.932Z" fill="url(#paint13_linear_2077_20281)"/>
<path d="M36.5471 154.095C39.4891 155.492 42.4411 156.77 45.393 157.929C41.3811 149.004 38.34 139.831 36.2697 130.549C29.0879 139.068 22.5302 148.34 16.6758 158.285C19.7862 156.73 22.8868 155.155 25.9774 153.56C26.4529 171.114 35.0711 186.666 46.3341 197.364C57.6665 208.231 71.6536 214.264 84.1846 216.681C110.138 221.564 127.88 212.372 127.751 212.6C107.404 215.769 89.4942 211.649 75.9726 205.249C62.3322 198.771 53.08 190.024 47.1959 182.099C35.5862 165.725 36.656 153.957 36.5471 154.095Z" fill="url(#paint14_linear_2077_20281)"/>
<path d="M208.197 90.2207C205.255 88.824 202.303 87.5461 199.351 86.3871C203.363 95.3124 206.404 104.485 208.474 113.767C215.656 105.248 222.214 95.9761 228.068 86.0305C224.958 87.5857 221.857 89.1608 218.766 90.7556C218.291 73.2024 209.673 57.6501 198.41 46.9517C187.077 36.0849 173.09 30.0522 160.559 27.6351C134.606 22.7515 116.864 31.9442 116.993 31.7164C137.34 28.5465 155.25 32.6673 168.771 39.0666C182.412 45.545 191.664 54.292 197.548 62.2167C209.158 78.6011 208.088 90.3594 208.197 90.2207Z" fill="url(#paint15_linear_2077_20281)"/>
<defs>
<linearGradient id="paint0_linear_2077_20281" x1="36.3662" y1="64.7497" x2="-27.7142" y2="85.315" gradientUnits="userSpaceOnUse">
<stop stop-color="#FCB148"/>
<stop offset="0.0520724" stop-color="#FDBA46"/>
<stop offset="0.1424" stop-color="#FFC244"/>
<stop offset="0.3183" stop-color="#FFC444"/>
<stop offset="0.4849" stop-color="#FDB946"/>
<stop offset="0.7754" stop-color="#F99C4D"/>
<stop offset="0.8658" stop-color="#F8924F"/>
<stop offset="1" stop-color="#F8924F"/>
</linearGradient>
<linearGradient id="paint1_linear_2077_20281" x1="88.203" y1="0.963305" x2="30.9961" y2="127.173" gradientUnits="userSpaceOnUse">
<stop stop-color="#FFDB44"/>
<stop offset="1" stop-color="#FEEF06"/>
</linearGradient>
<linearGradient id="paint2_linear_2077_20281" x1="77.6807" y1="134.227" x2="66.6425" y2="73.9253" gradientUnits="userSpaceOnUse">
<stop stop-color="#FCB148"/>
<stop offset="0.0520724" stop-color="#FDBA46"/>
<stop offset="0.1424" stop-color="#FFC244"/>
<stop offset="0.3183" stop-color="#FFC444"/>
<stop offset="0.4849" stop-color="#FDB946"/>
<stop offset="0.7754" stop-color="#F99C4D"/>
<stop offset="0.8658" stop-color="#F8924F"/>
<stop offset="1" stop-color="#F8924F"/>
</linearGradient>
<linearGradient id="paint3_linear_2077_20281" x1="54.2761" y1="36.6219" x2="99.766" y2="133.188" gradientUnits="userSpaceOnUse">
<stop stop-color="#FCB148"/>
<stop offset="0.0520724" stop-color="#FDBA46"/>
<stop offset="0.1424" stop-color="#FFC244"/>
<stop offset="0.3183" stop-color="#FFC444"/>
<stop offset="0.4849" stop-color="#FDB946"/>
<stop offset="0.7754" stop-color="#F99C4D"/>
<stop offset="0.8658" stop-color="#F8924F"/>
<stop offset="1" stop-color="#F8924F"/>
</linearGradient>
<linearGradient id="paint4_linear_2077_20281" x1="52.4655" y1="15.8423" x2="75.3394" y2="101.57" gradientUnits="userSpaceOnUse">
<stop stop-color="#FFDB44"/>
<stop offset="1" stop-color="#FEEF06"/>
</linearGradient>
<linearGradient id="paint5_linear_2077_20281" x1="40.8931" y1="42.8707" x2="86.2912" y2="139.242" gradientUnits="userSpaceOnUse">
<stop stop-color="#FCB148"/>
<stop offset="0.0520724" stop-color="#FDBA46"/>
<stop offset="0.1424" stop-color="#FFC244"/>
<stop offset="0.3183" stop-color="#FFC444"/>
<stop offset="0.4849" stop-color="#FDB946"/>
<stop offset="0.7754" stop-color="#F99C4D"/>
<stop offset="0.8658" stop-color="#F8924F"/>
<stop offset="1" stop-color="#F8924F"/>
</linearGradient>
<linearGradient id="paint6_linear_2077_20281" x1="168.479" y1="185.493" x2="104.399" y2="206.058" gradientUnits="userSpaceOnUse">
<stop stop-color="#FCB148"/>
<stop offset="0.0520724" stop-color="#FDBA46"/>
<stop offset="0.1424" stop-color="#FFC244"/>
<stop offset="0.3183" stop-color="#FFC444"/>
<stop offset="0.4849" stop-color="#FDB946"/>
<stop offset="0.7754" stop-color="#F99C4D"/>
<stop offset="0.8658" stop-color="#F8924F"/>
<stop offset="1" stop-color="#F8924F"/>
</linearGradient>
<linearGradient id="paint7_linear_2077_20281" x1="220.316" y1="121.707" x2="163.109" y2="247.916" gradientUnits="userSpaceOnUse">
<stop stop-color="#FFDB44"/>
<stop offset="1" stop-color="#FEEF06"/>
</linearGradient>
<linearGradient id="paint8_linear_2077_20281" x1="209.794" y1="254.97" x2="198.755" y2="194.669" gradientUnits="userSpaceOnUse">
<stop stop-color="#FCB148"/>
<stop offset="0.0520724" stop-color="#FDBA46"/>
<stop offset="0.1424" stop-color="#FFC244"/>
<stop offset="0.3183" stop-color="#FFC444"/>
<stop offset="0.4849" stop-color="#FDB946"/>
<stop offset="0.7754" stop-color="#F99C4D"/>
<stop offset="0.8658" stop-color="#F8924F"/>
<stop offset="1" stop-color="#F8924F"/>
</linearGradient>
<linearGradient id="paint9_linear_2077_20281" x1="186.391" y1="157.365" x2="231.881" y2="253.932" gradientUnits="userSpaceOnUse">
<stop stop-color="#FCB148"/>
<stop offset="0.0520724" stop-color="#FDBA46"/>
<stop offset="0.1424" stop-color="#FFC244"/>
<stop offset="0.3183" stop-color="#FFC444"/>
<stop offset="0.4849" stop-color="#FDB946"/>
<stop offset="0.7754" stop-color="#F99C4D"/>
<stop offset="0.8658" stop-color="#F8924F"/>
<stop offset="1" stop-color="#F8924F"/>
</linearGradient>
<linearGradient id="paint10_linear_2077_20281" x1="173.008" y1="163.614" x2="218.406" y2="259.986" gradientUnits="userSpaceOnUse">
<stop stop-color="#FCB148"/>
<stop offset="0.0520724" stop-color="#FDBA46"/>
<stop offset="0.1424" stop-color="#FFC244"/>
<stop offset="0.3183" stop-color="#FFC444"/>
<stop offset="0.4849" stop-color="#FDB946"/>
<stop offset="0.7754" stop-color="#F99C4D"/>
<stop offset="0.8658" stop-color="#F8924F"/>
<stop offset="1" stop-color="#F8924F"/>
</linearGradient>
<linearGradient id="paint11_linear_2077_20281" x1="188.846" y1="145.54" x2="205.561" y2="208.185" gradientUnits="userSpaceOnUse">
<stop stop-color="#FFDB44"/>
<stop offset="1" stop-color="#FEEF06"/>
</linearGradient>
<linearGradient id="paint12_linear_2077_20281" x1="201.133" y1="162.802" x2="161.186" y2="173.46" gradientUnits="userSpaceOnUse">
<stop stop-color="#FFDB44"/>
<stop offset="1" stop-color="#FEEF06"/>
</linearGradient>
<linearGradient id="paint13_linear_2077_20281" x1="201.337" y1="176.484" x2="160.978" y2="187.252" gradientUnits="userSpaceOnUse">
<stop stop-color="#FFDB44"/>
<stop offset="1" stop-color="#FEEF06"/>
</linearGradient>
<linearGradient id="paint14_linear_2077_20281" x1="112.312" y1="157.559" x2="-9.654" y2="213.981" gradientUnits="userSpaceOnUse">
<stop stop-color="#FB6FBB"/>
<stop offset="1" stop-color="#FF9085"/>
</linearGradient>
<linearGradient id="paint15_linear_2077_20281" x1="132.432" y1="86.7603" x2="254.398" y2="30.3388" gradientUnits="userSpaceOnUse">
<stop stop-color="#FB6FBB"/>
<stop offset="1" stop-color="#FF9085"/>
</linearGradient>
</defs>
</svg>
