<svg width="63" height="64" viewBox="0 0 63 64" fill="none" xmlns="http://www.w3.org/2000/svg">
<path fill-rule="evenodd" clip-rule="evenodd" d="M3.30933 13.6309H59.6908C60.3964 13.6309 60.9737 14.2083 60.9737 14.9139V51.5585C60.9737 52.2641 60.3964 52.8414 59.6908 52.8414H3.30933C2.60368 52.8414 2.02637 52.2641 2.02637 51.5585V14.9139C2.02637 14.2083 2.60368 13.6309 3.30933 13.6309Z" fill="#9FACBA"/>
<path fill-rule="evenodd" clip-rule="evenodd" d="M6.6748 25.9258H26.2082V45.4592H6.6748V25.9258Z" fill="#ECEFF1"/>
<path d="M44.5001 61.4729C49.9944 61.4729 54.4485 57.0188 54.4485 51.5245C54.4485 46.0302 49.9944 41.5762 44.5001 41.5762C39.0058 41.5762 34.5518 46.0302 34.5518 51.5245C34.5518 57.0188 39.0058 61.4729 44.5001 61.4729Z" fill="#8AC9FE"/>
<path fill-rule="evenodd" clip-rule="evenodd" d="M43.1938 52.4029L48.0312 47.5172C48.6039 46.9389 49.5381 46.9372 50.1147 47.5107C50.6913 48.0841 50.6931 49.0156 50.1211 49.5929C48.1595 51.5727 46.2111 53.5656 44.2404 55.5363C43.6644 56.1124 42.7298 56.1124 42.1537 55.5363L38.8842 52.2668C38.3081 51.6907 38.3081 50.7561 38.8842 50.18C39.4603 49.604 40.3949 49.604 40.9711 50.18L43.1938 52.4029Z" fill="#ECEFF1"/>
<path fill-rule="evenodd" clip-rule="evenodd" d="M8.67969 45.453H24.203C24.3019 45.4534 24.3997 45.4317 24.4892 45.3895C24.5787 45.3473 24.6576 45.2856 24.7202 45.209C24.7828 45.1324 24.8274 45.0427 24.8509 44.9466C24.8744 44.8505 24.8761 44.7503 24.856 44.6535C24.0578 40.7366 20.5939 37.7891 16.4413 37.7891C12.2886 37.7891 8.82473 40.7366 8.02661 44.6536C8.00646 44.7505 8.00822 44.8506 8.03173 44.9467C8.05525 45.0428 8.09993 45.1324 8.16253 45.209C8.22512 45.2856 8.30404 45.3473 8.39351 45.3895C8.48299 45.4317 8.58076 45.4534 8.67969 45.453Z" fill="#8AC9FE"/>
<path fill-rule="evenodd" clip-rule="evenodd" d="M22.6853 45.453H24.2031C24.302 45.4534 24.3998 45.4317 24.4893 45.3895C24.5788 45.3473 24.6577 45.2856 24.7203 45.209C24.7829 45.1324 24.8276 45.0427 24.8511 44.9466C24.8746 44.8505 24.8763 44.7503 24.8562 44.6535C24.0581 40.7366 20.5942 37.7891 16.4416 37.7891C16.1858 37.7891 15.9328 37.8004 15.6826 37.8222C19.4928 38.1559 22.5894 40.9777 23.3384 44.6535C23.3586 44.7503 23.3568 44.8505 23.3333 44.9466C23.3098 45.0427 23.2651 45.1324 23.2025 45.209C23.1399 45.2856 23.061 45.3473 22.9715 45.3895C22.882 45.4317 22.7843 45.4534 22.6853 45.453Z" fill="#60B7FF"/>
<path d="M16.4426 37.7894C18.8406 37.7894 20.7845 35.8454 20.7845 33.4474C20.7845 31.0494 18.8406 29.1055 16.4426 29.1055C14.0446 29.1055 12.1006 31.0494 12.1006 33.4474C12.1006 35.8454 14.0446 37.7894 16.4426 37.7894Z" fill="#F6DCCD"/>
<path fill-rule="evenodd" clip-rule="evenodd" d="M16.4419 29.1055C18.8399 29.1055 20.7838 31.0495 20.7838 33.4474C20.7838 35.8455 18.8398 37.7895 16.4419 37.7895C16.2365 37.7895 16.0346 37.7749 15.8369 37.7474C17.9486 37.4529 19.5741 35.6402 19.5741 33.4474C19.5741 31.2547 17.9486 29.442 15.8369 29.1476C16.0374 29.1196 16.2395 29.1055 16.4419 29.1055Z" fill="#F1CBBC"/>
<path fill-rule="evenodd" clip-rule="evenodd" d="M31.5001 2.52539C35.0897 2.52539 38.0267 5.46232 38.0267 9.05185V19.4207H24.9736V9.05185C24.9736 5.4622 27.9106 2.52539 31.5001 2.52539Z" fill="#D1D1D6"/>
<path fill-rule="evenodd" clip-rule="evenodd" d="M31.4997 2.52539C35.0893 2.52539 38.0262 5.46232 38.0262 9.05185V19.4207H36.7982V9.05185C36.7982 5.66937 34.1901 2.86679 30.8857 2.55474C31.0898 2.53529 31.2947 2.52549 31.4997 2.52539Z" fill="#B1B1B5"/>
<path d="M31.8906 11.4809C33.2294 11.2629 34.138 10.0008 33.92 8.66193C33.7019 7.32308 32.4398 6.41449 31.101 6.63254C29.7621 6.85058 28.8535 8.1127 29.0716 9.45155C29.2896 10.7904 30.5517 11.699 31.8906 11.4809Z" fill="#ECEFF1"/>
<path fill-rule="evenodd" clip-rule="evenodd" d="M31.4998 6.5957C32.8562 6.5957 33.9559 7.69532 33.9559 9.05184C33.9559 10.4084 32.8563 11.508 31.4998 11.508C31.2877 11.508 31.082 11.4811 30.8857 11.4306C31.9451 11.158 32.7278 10.1963 32.7278 9.05184C32.7278 7.90741 31.9451 6.94583 30.8857 6.67307C31.0864 6.62157 31.2927 6.59557 31.4998 6.5957Z" fill="#B1B1B5"/>
<path fill-rule="evenodd" clip-rule="evenodd" d="M44.4998 41.5762C49.9942 41.5762 54.4483 46.0303 54.4483 51.5246C54.4483 57.019 49.9942 61.473 44.4998 61.473C44.2935 61.473 44.0889 61.466 43.8857 61.4536C49.094 61.1364 53.2202 56.8127 53.2202 51.5246C53.2202 46.2366 49.0941 41.9129 43.8857 41.5956C44.0902 41.5829 44.2949 41.5764 44.4998 41.5762Z" fill="#60B7FF"/>
<path fill-rule="evenodd" clip-rule="evenodd" d="M49.4222 48.901C48.6909 49.6399 47.9607 50.3798 47.2314 51.1207C46.0256 52.3421 44.7788 53.6074 43.5446 54.8415C43.4521 54.9334 43.327 54.9849 43.1967 54.9849C43.0663 54.9849 42.9412 54.9334 42.8487 54.8415L39.5781 51.5709C39.4859 51.4785 39.4341 51.3534 39.4341 51.2229C39.4341 51.0924 39.4859 50.9673 39.5781 50.8749C39.6237 50.8289 39.678 50.7924 39.7378 50.7674C39.7976 50.7425 39.8618 50.7297 39.9266 50.7298C39.9915 50.7296 40.0558 50.7423 40.1158 50.7672C40.1757 50.7921 40.2301 50.8287 40.2758 50.8749L42.4983 53.0975C42.5897 53.1887 42.6981 53.261 42.8174 53.3103C42.9367 53.3596 43.0646 53.3849 43.1936 53.3847H43.196C43.3252 53.3843 43.4531 53.3584 43.5723 53.3085C43.6916 53.2587 43.7998 53.1858 43.8908 53.094L48.7284 48.2084C48.8527 48.083 48.9973 48.0651 49.0735 48.0633H49.0746C49.1521 48.0633 49.2972 48.0829 49.4208 48.2072C49.4665 48.2526 49.5029 48.3066 49.5277 48.3661C49.5525 48.4256 49.5653 48.4894 49.5655 48.5538C49.5656 48.6183 49.553 48.6821 49.5284 48.7417C49.5038 48.8013 49.4677 48.8554 49.4222 48.901ZM49.0747 46.0987H49.066C48.4088 46.101 47.7938 46.3594 47.3336 46.8258L43.1898 51.0098L41.6662 49.4849C41.202 49.0202 40.5841 48.7652 39.9269 48.7652C39.2702 48.7652 38.6535 49.0202 38.1893 49.4849C37.2315 50.4439 37.2315 52.0023 38.1893 52.9612L41.4586 56.2305C41.9372 56.7091 42.5673 56.9491 43.1973 56.9491C43.52 56.9496 43.8396 56.8863 44.1378 56.763C44.4359 56.6397 44.7068 56.4588 44.9349 56.2305C46.1731 54.9912 47.4234 53.7254 48.6314 52.4993C49.3598 51.76 50.088 51.0207 50.8187 50.2842C51.7707 49.3235 51.7656 47.7663 50.8078 46.8137C50.3436 46.353 49.7292 46.0987 49.0747 46.0987ZM31.5001 7.57942C32.3128 7.57942 32.9735 8.24013 32.9735 9.05286C32.9735 9.86437 32.3128 10.5269 31.5001 10.5269C30.688 10.5269 30.026 9.8645 30.026 9.05286C30.0262 8.24013 30.688 7.57942 31.5001 7.57942ZM31.5001 12.4916C33.3961 12.4916 34.9388 10.9494 34.9388 9.05286C34.9388 7.15685 33.396 5.61414 31.5001 5.61414C29.6036 5.61414 28.0614 7.15697 28.0614 9.05286C28.0614 10.9494 29.6036 12.4916 31.5001 12.4916ZM57.3066 38.523C57.3066 39.0646 56.8673 39.5057 56.3239 39.5057H32.6752C32.1336 39.5057 31.6925 39.0647 31.6925 38.523C31.6925 37.9802 32.1335 37.5403 32.6752 37.5403H56.3239C56.453 37.5402 56.5808 37.5656 56.7001 37.615C56.8193 37.6643 56.9277 37.7367 57.0189 37.828C57.1102 37.9192 57.1826 38.0276 57.232 38.1468C57.2813 38.2661 57.3067 38.3939 57.3066 38.523ZM57.3066 32.8617C57.3067 32.9907 57.2813 33.1185 57.2319 33.2377C57.1825 33.3569 57.1101 33.4653 57.0189 33.5565C56.9276 33.6477 56.8192 33.72 56.7 33.7693C56.5808 33.8186 56.453 33.8439 56.3239 33.8438H32.6752C32.1336 33.8438 31.6925 33.4045 31.6925 32.8617C31.6925 32.3201 32.1335 31.879 32.6752 31.879H56.3239C56.5845 31.8791 56.8345 31.9826 57.0187 32.1669C57.203 32.3512 57.3066 32.6011 57.3066 32.8617ZM57.3066 27.2015C57.3067 27.3306 57.2813 27.4583 57.2319 27.5776C57.1825 27.6968 57.1101 27.8051 57.0189 27.8963C56.9276 27.9875 56.8192 28.0598 56.7 28.1091C56.5808 28.1584 56.453 28.1837 56.3239 28.1836H32.6752C32.1336 28.1836 31.6925 27.7443 31.6925 27.2015C31.6925 26.6587 32.1335 26.2188 32.6752 26.2188H56.3239C56.453 26.2188 56.5808 26.2441 56.7001 26.2935C56.8193 26.3429 56.9277 26.4152 57.0189 26.5065C57.1102 26.5978 57.1826 26.7061 57.232 26.8254C57.2813 26.9446 57.3067 27.0725 57.3066 27.2015ZM16.4428 38.772H16.4452C19.9695 38.7733 22.9649 41.1593 23.8135 44.4767H9.07172C9.92031 41.1582 12.9157 38.7731 16.44 38.772H16.4428ZM13.0804 33.4449C13.0804 31.5905 14.5885 30.0825 16.4428 30.0825C18.2972 30.0825 19.8053 31.5905 19.8053 33.4449C19.8053 35.2981 18.2983 36.8063 16.4452 36.8074H16.44C14.5867 36.8061 13.0804 35.2981 13.0804 33.4449ZM25.2267 26.9079H7.65833V42.5594C8.15999 41.4026 8.88573 40.3565 9.7937 39.4816C10.7017 38.6067 11.7739 37.9202 12.9485 37.4617C11.8265 36.4843 11.1155 35.0461 11.1155 33.4449C11.1155 30.5074 13.5051 28.1177 16.4427 28.1177C19.3803 28.1177 21.77 30.5073 21.77 33.4449C21.77 35.0461 21.059 36.4843 19.9365 37.4617C21.1112 37.92 22.1835 38.6065 23.0915 39.4814C23.9995 40.3564 24.7252 41.4025 25.2267 42.5594V26.9079ZM26.2093 24.9431H6.67575C6.54673 24.943 6.41896 24.9684 6.29974 25.0177C6.18051 25.067 6.07217 25.1393 5.98091 25.2305C5.88965 25.3217 5.81726 25.43 5.76787 25.5492C5.71847 25.6684 5.69305 25.7962 5.69305 25.9252V45.4594C5.69315 45.7199 5.79673 45.9697 5.98102 46.1539C6.16531 46.3381 6.41521 46.4415 6.67575 46.4415H26.2094C26.47 46.4415 26.7199 46.3381 26.9042 46.1539C27.0885 45.9697 27.192 45.7199 27.1921 45.4594V25.9252C27.1921 25.7962 27.1667 25.6684 27.1173 25.5492C27.0679 25.43 26.9955 25.3217 26.9042 25.2305C26.8129 25.1393 26.7046 25.067 26.5854 25.0177C26.4661 24.9684 26.3383 24.943 26.2093 24.9431ZM59.9911 51.5577V14.913C59.9911 14.7511 59.8535 14.6136 59.6906 14.6136H39.0094V18.439H39.6752C40.218 18.439 40.6573 18.8789 40.6573 19.4217C40.6573 19.9645 40.218 20.4038 39.6752 20.4038H23.3261C22.7832 20.4038 22.3433 19.9645 22.3433 19.4217C22.3433 18.8789 22.7832 18.439 23.3261 18.439H23.9914V14.6136H3.30986C3.14628 14.6136 3.00873 14.7511 3.00873 14.913V51.5577C3.00873 51.7207 3.14628 51.8582 3.30986 51.8582H33.5742C33.5718 51.7478 33.5689 51.6363 33.5689 51.5247C33.5689 49.1541 34.3285 46.9582 35.6151 45.1657H32.6752C32.1336 45.1657 31.6925 44.7258 31.6925 44.183C31.6925 43.6402 32.1335 43.2003 32.6752 43.2003H37.4244C39.3325 41.5761 41.8036 40.5945 44.5002 40.5945C47.1973 40.5945 49.6678 41.576 51.5766 43.2003H56.3241C56.8675 43.2003 57.3068 43.6402 57.3068 44.183C57.3068 44.7258 56.8675 45.1657 56.3241 45.1657H53.3853C54.6725 46.9582 55.4315 49.1543 55.4315 51.5247C55.4315 51.6363 55.4292 51.7478 55.4251 51.8582H59.6904C59.8535 51.8584 59.9911 51.7207 59.9911 51.5577ZM44.5002 60.4907C49.4442 60.4907 53.4667 56.4687 53.4667 51.5247C53.4667 46.5813 49.4442 42.5593 44.5002 42.5593C39.5562 42.5593 35.5343 46.5813 35.5343 51.5247C35.5343 56.4688 39.5562 60.4907 44.5002 60.4907ZM31.5001 3.50837C28.4434 3.50837 25.9567 5.99509 25.9567 9.05286V18.439H37.0446V9.05286C37.0447 5.99509 34.5568 3.50837 31.5001 3.50837ZM59.6904 12.6488H39.0094V9.05286C39.0094 4.91181 35.6411 1.54297 31.5001 1.54297C27.3601 1.54297 23.9914 4.91181 23.9914 9.05286V12.6488H3.30986C2.06066 12.6488 1.04395 13.6644 1.04395 14.913V51.5577C1.04395 52.8074 2.06066 53.823 3.30986 53.823H33.8135C34.8725 58.7502 39.2615 62.4554 44.5003 62.4554C49.7396 62.4554 54.1287 58.7502 55.1871 53.823H59.6907C60.9404 53.823 61.956 52.8074 61.956 51.5577V14.913C61.9557 13.6644 60.9401 12.6488 59.6904 12.6488Z" fill="#242222"/>
</svg>
