<svg width="63" height="64" viewBox="0 0 63 64" fill="none" xmlns="http://www.w3.org/2000/svg">
<path d="M58.7883 13.8131L46.1536 32.4746V53.9715C46.1536 57.5661 43.247 60.4727 39.6642 60.4727H30.1377V3.52734H39.6642C43.247 3.52734 46.1536 6.43393 46.1536 10.0286V16.8027L51.5159 8.8897C51.7161 8.59275 51.9731 8.33833 52.272 8.14109C52.5709 7.94384 52.9059 7.80767 53.2576 7.74041C53.6094 7.67314 53.9709 7.67612 54.3215 7.74916C54.6721 7.82221 55.0048 7.96388 55.3004 8.16602L58.0528 10.0286C58.6517 10.4334 59.0654 11.0592 59.2033 11.7687C59.3412 12.4782 59.192 13.2135 58.7883 13.8131Z" fill="black"/>
<path d="M39.6624 61.0653H30.1371C29.9798 61.0653 29.8289 61.0028 29.7177 60.8916C29.6064 60.7804 29.5439 60.6295 29.5439 60.4722V3.52677C29.5439 3.36945 29.6064 3.21858 29.7177 3.10733C29.8289 2.99609 29.9798 2.93359 30.1371 2.93359H39.6636C43.5691 2.93359 46.7462 6.1166 46.7462 10.028V14.8684L51.0242 8.55695C51.2683 8.19367 51.5823 7.88266 51.948 7.6421C52.3136 7.40154 52.7235 7.23624 53.1537 7.15586C53.5812 7.07358 54.0208 7.07715 54.4469 7.16636C54.873 7.25557 55.277 7.42863 55.6356 7.67548L58.3844 9.5357C59.1133 10.029 59.6168 10.7913 59.7845 11.6553C59.9522 12.5193 59.7704 13.4146 59.2789 14.1447L46.7462 32.6555V53.9709C46.7462 57.8823 43.5679 61.0653 39.6624 61.0653ZM30.7303 59.879H39.6636C42.9142 59.879 45.5598 57.2286 45.5598 53.9709V32.474C45.5599 32.3556 45.5955 32.2399 45.6619 32.1418L58.2966 13.4804C58.9539 12.5075 58.6952 11.1788 57.72 10.5192L54.9677 8.6566C54.7381 8.4973 54.479 8.38552 54.2056 8.32787C53.9321 8.27021 53.6499 8.26783 53.3756 8.32086C52.8133 8.42764 52.328 8.74795 52.0065 9.22131L46.6442 17.1343C46.573 17.2394 46.47 17.3189 46.3503 17.3611C46.2307 17.4033 46.1006 17.4061 45.9793 17.3689C45.8579 17.3317 45.7517 17.2566 45.6762 17.1546C45.6007 17.0526 45.5599 16.9291 45.5598 16.8022V10.028C45.5598 8.46317 44.939 6.96222 43.8336 5.85458C42.7282 4.74694 41.2285 4.1231 39.6636 4.11996H30.7303V59.879Z" fill="black"/>
<path d="M42.5905 10.0286V53.9715C42.5905 57.5661 39.6839 60.4727 36.1011 60.4727H10.2384C6.65561 60.4727 3.74902 57.5661 3.74902 53.9715V10.0286C3.74902 6.43393 6.65561 3.52734 10.2384 3.52734H36.1011C39.6839 3.52734 42.5905 6.43393 42.5905 10.0286Z" fill="white"/>
<path d="M36.1006 61.0653H10.2379C6.33235 61.0653 3.15527 57.8823 3.15527 53.9709V10.028C3.15527 6.11542 6.33235 2.93359 10.2379 2.93359H36.1006C40.0061 2.93359 43.1831 6.1166 43.1831 10.028V53.9709C43.1831 57.8823 40.0061 61.0653 36.1006 61.0653ZM10.2379 4.11996C8.67299 4.1231 7.17329 4.74694 6.06788 5.85458C4.96246 6.96222 4.34163 8.46317 4.34164 10.028V53.9709C4.34164 57.2286 6.98722 59.879 10.2379 59.879H36.1006C39.3512 59.879 41.9968 57.2286 41.9968 53.9709V10.028C41.9968 8.46317 41.3759 6.96222 40.2705 5.85458C39.1651 4.74694 37.6654 4.1231 36.1006 4.11996H10.2379Z" fill="black"/>
<path d="M37.8477 45.8329V47.1083C37.8477 48.0336 37.1003 48.781 36.1749 48.781H10.158C9.24448 48.781 8.49707 48.0336 8.49707 47.1083V45.8329C8.49707 44.9076 9.24448 44.1602 10.158 44.1602H36.1749C37.1003 44.1602 37.8477 44.9076 37.8477 45.8329Z" fill="#DDDDDD"/>
<path d="M36.1743 49.3736H10.1574C8.9141 49.3736 7.90332 48.3569 7.90332 47.1077V45.8312C7.90332 44.5819 8.9141 43.5664 10.1574 43.5664H36.1743C37.4236 43.5664 38.4403 44.5819 38.4403 45.8324V47.1065C38.4403 48.3569 37.4236 49.3736 36.1743 49.3736ZM10.1574 44.7528C9.56779 44.7528 9.08968 45.2368 9.08968 45.8324V47.1065C9.08968 47.7021 9.56779 48.1861 10.1574 48.1861H36.1743C36.7687 48.1861 37.2539 47.7021 37.2539 47.1065V45.8324C37.2536 45.5462 37.1397 45.2719 36.9373 45.0697C36.7349 44.8675 36.4604 44.754 36.1743 44.754L10.1574 44.7528Z" fill="black"/>
<path d="M20.6822 36.1669V38.7176C20.6822 39.643 19.9348 40.3904 19.0094 40.3904H10.158C9.24448 40.3904 8.49707 39.643 8.49707 38.7176V36.1669C8.49707 35.2415 9.24448 34.4941 10.158 34.4941H19.0094C19.9348 34.4941 20.6822 35.2415 20.6822 36.1669Z" fill="#5AE4A7"/>
<path d="M19.0089 40.983H10.1574C8.9141 40.983 7.90332 39.9674 7.90332 38.717V36.1663C7.90332 34.9171 8.9141 33.9004 10.1574 33.9004H19.01C20.2593 33.9004 21.276 34.9171 21.276 36.1663V38.717C21.276 39.9674 20.2581 40.983 19.0089 40.983ZM10.1562 35.0868C9.56779 35.0868 9.0885 35.572 9.0885 36.1663V38.717C9.0885 39.3126 9.56779 39.7966 10.1562 39.7966H19.0089C19.6044 39.7966 20.0884 39.3126 20.0884 38.717V36.1663C20.0884 35.88 19.9747 35.6054 19.7722 35.403C19.5698 35.2005 19.2952 35.0868 19.0089 35.0868H10.1562Z" fill="black"/>
<path d="M37.8474 36.1669V38.7176C37.8474 39.643 37.1 40.3904 36.1747 40.3904H27.322C26.4085 40.3904 25.6611 39.643 25.6611 38.7176V36.1669C25.6611 35.2415 26.4085 34.4941 27.322 34.4941H36.1747C37.1 34.4941 37.8474 35.2415 37.8474 36.1669Z" fill="#5AE4A7"/>
<path d="M36.1761 40.983H27.3234C26.0801 40.983 25.0693 39.9674 25.0693 38.717V36.1663C25.0693 34.9171 26.0801 33.9004 27.3234 33.9004H36.1761C37.4253 33.9004 38.442 34.9171 38.442 36.1663V38.717C38.442 39.9674 37.4253 40.983 36.1761 40.983ZM27.3234 35.0868C26.735 35.0868 26.2557 35.572 26.2557 36.1663V38.717C26.2557 39.3126 26.735 39.7966 27.3234 39.7966H36.1761C36.7704 39.7966 37.2556 39.3126 37.2556 38.717V36.1663C37.2556 35.88 37.1419 35.6054 36.9394 35.403C36.737 35.2005 36.4624 35.0868 36.1761 35.0868H27.3234Z" fill="black"/>
<path d="M42.5785 9.70829H31.6402C30.8454 9.70829 30.1098 10.171 29.7658 10.8828L29.2319 11.998C28.8879 12.7098 28.1523 13.1725 27.3575 13.1725H18.9818C18.1869 13.1725 17.4514 12.7098 17.1073 11.998L16.5735 10.8828C16.2294 10.171 15.4939 9.70829 14.699 9.70829H3.76074C3.92683 6.26784 6.76224 3.52734 10.2383 3.52734H36.101C39.577 3.52734 42.4124 6.26784 42.5785 9.70829Z" fill="#283E42"/>
<path d="M27.3578 13.7651H18.9821C17.9618 13.7651 17.0175 13.1719 16.5738 12.2548L16.0399 11.1385C15.917 10.8875 15.7263 10.676 15.4894 10.528C15.2524 10.3799 14.9787 10.3013 14.6993 10.3009H3.76104C3.68055 10.3015 3.60077 10.2856 3.52665 10.2542C3.45252 10.2228 3.38561 10.1766 3.33003 10.1183C3.27446 10.0601 3.2314 9.99109 3.20351 9.91558C3.17562 9.84006 3.16349 9.75963 3.16786 9.67925C3.25271 7.86108 4.03496 6.14555 5.35202 4.88925C6.66908 3.63295 8.41962 2.93253 10.2398 2.93359H36.1025C37.9225 2.93255 39.6729 3.633 40.9898 4.88933C42.3066 6.14566 43.0886 7.86119 43.1732 9.67925C43.177 9.75951 43.1646 9.83972 43.1365 9.915C43.1084 9.99029 43.0653 10.0591 43.0098 10.1172C42.9544 10.1754 42.8877 10.2216 42.8138 10.2532C42.7399 10.2848 42.6604 10.301 42.58 10.3009H31.6417C31.3621 10.3015 31.0882 10.3805 30.8512 10.529C30.6142 10.6775 30.4237 10.8895 30.3012 11.1408L29.7673 12.2525C29.5473 12.7045 29.2051 13.0858 28.7794 13.3531C28.3537 13.6205 27.8605 13.7632 27.3578 13.7651ZM4.4171 9.11454H14.6993C15.7196 9.11454 16.6651 9.70772 17.1076 10.6236L17.6415 11.7411C17.8882 12.2501 18.415 12.5787 18.9821 12.5787H27.3578C27.6374 12.5781 27.9113 12.4991 28.1483 12.3506C28.3853 12.2021 28.5759 11.9902 28.6984 11.7388L29.2322 10.626C29.4524 10.1742 29.7947 9.79313 30.2203 9.52598C30.646 9.25884 31.138 9.11631 31.6406 9.11454H41.9239C41.7107 7.72347 41.0061 6.45483 39.9379 5.53856C38.8697 4.62229 37.5086 4.11902 36.1013 4.11996H10.2386C8.83152 4.11954 7.47084 4.62303 6.40295 5.53923C5.33506 6.45544 4.63059 7.72377 4.4171 9.11454Z" fill="black"/>
<path d="M3.74902 52.8125V53.9716C3.74902 57.5663 6.65561 60.4728 10.2384 60.4728H36.1011C39.6839 60.4728 42.5905 57.5663 42.5905 53.9716V52.8125H3.74902Z" fill="#283E42"/>
<path d="M36.1006 61.0653H10.2379C6.33235 61.0653 3.15527 57.8823 3.15527 53.9708V52.8118C3.15527 52.6544 3.21777 52.5036 3.32901 52.3923C3.44026 52.2811 3.59113 52.2186 3.74845 52.2186H42.59C42.7473 52.2186 42.8982 52.2811 43.0094 52.3923C43.1206 52.5036 43.1831 52.6544 43.1831 52.8118V53.9708C43.1831 57.8823 40.0061 61.0653 36.1006 61.0653ZM4.34164 53.4049V53.9708C4.34164 57.2286 6.98722 59.8789 10.2379 59.8789H36.1006C39.3512 59.8789 41.9968 57.2286 41.9968 53.9708V53.4049H4.34164ZM29.0927 7.48324H21.9342C21.7769 7.48324 21.626 7.42074 21.5148 7.3095C21.4035 7.19826 21.341 7.04738 21.341 6.89006C21.341 6.73273 21.4035 6.58186 21.5148 6.47061C21.626 6.35937 21.7769 6.29688 21.9342 6.29688H29.0927C29.25 6.29688 29.4009 6.35937 29.5122 6.47061C29.6234 6.58186 29.6859 6.73273 29.6859 6.89006C29.6859 7.04738 29.6234 7.19826 29.5122 7.3095C29.4009 7.42074 29.25 7.48324 29.0927 7.48324ZM19.5615 7.48324H17.2457C17.0884 7.48324 16.9375 7.42074 16.8263 7.3095C16.715 7.19826 16.6525 7.04738 16.6525 6.89006C16.6525 6.73273 16.715 6.58186 16.8263 6.47061C16.9375 6.35937 17.0884 6.29688 17.2457 6.29688H19.5615C19.7188 6.29688 19.8697 6.35937 19.9809 6.47061C20.0922 6.58186 20.1547 6.73273 20.1547 6.89006C20.1547 7.04738 20.0922 7.19826 19.9809 7.3095C19.8697 7.42074 19.7188 7.48324 19.5615 7.48324Z" fill="black"/>
<path d="M27.4198 57.2352H18.9184C18.7611 57.2352 18.6102 57.1727 18.4989 57.0615C18.3877 56.9502 18.3252 56.7993 18.3252 56.642C18.3252 56.4847 18.3877 56.3338 18.4989 56.2226C18.6102 56.1113 18.7611 56.0488 18.9184 56.0488H27.421C27.5784 56.0488 27.7292 56.1113 27.8405 56.2226C27.9517 56.3338 28.0142 56.4847 28.0142 56.642C28.0142 56.7993 27.9517 56.9502 27.8405 57.0615C27.7292 57.1727 27.5784 57.2352 27.421 57.2352H27.4198Z" fill="black"/>
<path d="M31.4212 23.7492C31.4212 25.5287 30.8565 27.1671 29.9027 28.5124C29.1417 29.5903 28.1329 30.4697 26.9614 31.0767C25.7898 31.6837 24.4896 32.0005 23.1701 32.0005C21.8506 32.0005 20.5504 31.6837 19.3789 31.0767C18.2073 30.4697 17.1985 29.5903 16.4375 28.5124C15.4476 27.1216 14.9167 25.4564 14.919 23.7492C14.919 19.1936 18.6157 15.498 23.1701 15.498C27.7245 15.498 31.4212 19.1948 31.4212 23.7492Z" fill="#DDDDDD"/>
<path d="M23.1684 32.5918C21.7544 32.5901 20.3614 32.2499 19.1058 31.5995C17.8503 30.9491 16.7688 30.0076 15.9517 28.8535C14.8903 27.3628 14.3216 25.5774 14.3252 23.7474C14.3252 18.8715 18.2924 14.9043 23.1684 14.9043C28.0443 14.9043 32.0127 18.8715 32.0127 23.7474C32.0127 25.5887 31.4492 27.354 30.385 28.8547C29.5678 30.0085 28.4862 30.9499 27.2307 31.6C25.9752 32.2502 24.5822 32.5902 23.1684 32.5918ZM23.1684 16.0895C21.1382 16.092 19.192 16.8996 17.7565 18.3353C16.3211 19.7709 15.5138 21.7173 15.5116 23.7474C15.5116 25.3419 15.998 26.8699 16.9198 28.1666C18.3553 30.1953 20.6912 31.4054 23.1684 31.4054C25.6455 31.4054 27.9814 30.1953 29.4169 28.1666C30.3366 26.8768 30.8294 25.3315 30.8263 23.7474C30.8238 21.7173 30.0161 19.771 28.5805 18.3356C27.1449 16.9002 25.1985 16.0917 23.1684 16.0895Z" fill="black"/>
<path d="M29.9017 28.5121C29.1407 29.5899 28.132 30.4693 26.9604 31.0763C25.7888 31.6833 24.4886 32.0001 23.1691 32.0001C21.8496 32.0001 20.5495 31.6833 19.3779 31.0763C18.2063 30.4693 17.1976 29.5899 16.4365 28.5121C17.2739 27.0734 18.5516 25.9421 20.081 25.2852C20.4155 25.7995 20.8731 26.222 21.4125 26.5144C21.9518 26.8067 22.5557 26.9596 23.1691 26.9591C23.7832 26.9619 24.3881 26.8099 24.9279 26.5174C25.4678 26.2248 25.9254 25.8011 26.2584 25.2852C27.7874 25.9423 29.0647 27.0736 29.9017 28.5121Z" fill="#FFDDAB"/>
<path d="M23.1686 32.5931C21.7547 32.5915 20.3616 32.2512 19.1061 31.6009C17.8506 30.9505 16.7691 30.0089 15.952 28.8549C15.8861 28.762 15.8484 28.652 15.8434 28.5382C15.8383 28.4244 15.8661 28.3115 15.9235 28.2131C16.8278 26.6675 18.2019 25.451 19.8456 24.7406C19.9734 24.6848 20.1168 24.6762 20.2504 24.7161C20.384 24.7561 20.4991 24.8421 20.5753 24.9589C20.8567 25.3903 21.2412 25.7448 21.694 25.9904C22.1467 26.2361 22.6535 26.3651 23.1686 26.3659C24.2198 26.3659 25.189 25.8415 25.7597 24.9613C25.8359 24.8439 25.9513 24.7573 26.0853 24.7169C26.2193 24.6765 26.3632 24.6849 26.4916 24.7406C28.1354 25.451 29.5095 26.6675 30.4138 28.2131C30.4709 28.3114 30.4986 28.424 30.4936 28.5376C30.4885 28.6512 30.4509 28.7609 30.3853 28.8537C29.5684 30.008 28.4869 30.9498 27.2314 31.6003C25.9758 32.2509 24.5827 32.5913 23.1686 32.5931ZM17.1538 28.48C18.6012 30.3201 20.8208 31.4068 23.1686 31.4068C25.5165 31.4068 27.7361 30.3201 29.1835 28.48C28.497 27.4402 27.5534 26.5955 26.4442 26.0278C26.0435 26.5063 25.5424 26.8909 24.9766 27.1543C24.4108 27.4178 23.794 27.5536 23.1698 27.5523C22.5458 27.5524 21.9292 27.4159 21.3636 27.1523C20.7979 26.8888 20.2968 26.5045 19.8955 26.0266C18.7853 26.5948 17.8418 27.4398 17.1538 28.48Z" fill="black"/>
<path d="M26.8466 21.6742V23.2817C26.8479 23.9922 26.6439 24.688 26.2593 25.2855C25.5973 26.2951 24.4679 26.957 23.1724 26.957C21.8769 26.957 20.7463 26.2951 20.0855 25.2843C19.7007 24.6873 19.4964 23.9919 19.4971 23.2817V21.6742C19.4971 21.1915 19.5922 20.7135 19.777 20.2676C19.9618 19.8217 20.2326 19.4165 20.574 19.0753C20.9155 18.7341 21.3208 18.4635 21.7668 18.279C22.2129 18.0945 22.6909 17.9997 23.1736 18C23.6564 17.9989 24.1347 18.0932 24.5809 18.2775C25.0272 18.4617 25.4327 18.7323 25.7741 19.0737C26.1155 19.4151 26.3861 19.8206 26.5703 20.2668C26.7546 20.7131 26.8477 21.1914 26.8466 21.6742Z" fill="#FFDDAB"/>
<path d="M23.1719 27.5508C22.4602 27.5514 21.7598 27.3742 21.1341 27.0352C20.5084 26.6963 19.9773 26.2063 19.589 25.6099C19.1408 24.9164 18.9027 24.1081 18.9033 23.2823V21.6748C18.9046 20.5431 19.3547 19.4581 20.1549 18.6579C20.9552 17.8576 22.0402 17.4075 23.1719 17.4062C24.3131 17.4062 25.3856 17.8499 26.1911 18.6555C26.9903 19.4571 27.4391 20.5428 27.4392 21.6748V23.2823C27.4392 24.1116 27.2031 24.9147 26.757 25.6076C26.3687 26.2046 25.8373 26.6951 25.2112 27.0345C24.5851 27.3738 23.884 27.5513 23.1719 27.5508ZM23.1719 18.5938C22.3548 18.5944 21.5714 18.9192 20.9935 19.4968C20.4157 20.0744 20.0906 20.8577 20.0897 21.6748V23.2823C20.0897 23.8826 20.2605 24.4639 20.5832 24.9634C20.864 25.3944 21.2479 25.7484 21.7002 25.9934C22.1524 26.2384 22.6587 26.3666 23.1731 26.3664C23.6875 26.3661 24.1936 26.2375 24.6457 25.9921C25.0977 25.7466 25.4813 25.3922 25.7617 24.961C26.082 24.4639 26.2528 23.8826 26.2528 23.2823V21.6748C26.2528 20.8574 25.9325 20.0827 25.35 19.4919C25.0645 19.2054 24.7249 18.9784 24.351 18.824C23.9771 18.6697 23.5763 18.5922 23.1719 18.5938Z" fill="black"/>
<path d="M26.829 21.5072C26.7891 20.5936 26.4121 19.7271 25.7708 19.0752C25.2679 18.571 24.6291 18.2241 23.9323 18.0771C23.2355 17.93 22.511 17.9891 21.8473 18.247C21.1836 18.505 20.6093 18.9506 20.1947 19.5296C19.7801 20.1086 19.5431 20.7957 19.5127 21.5072H26.829Z" fill="#283E42"/>
<path d="M26.8298 22.1007H19.5147C19.4345 22.1008 19.3552 22.0846 19.2815 22.0532C19.2077 22.0217 19.1411 21.9757 19.0857 21.9178C19.0303 21.8599 18.9871 21.7914 18.9589 21.7164C18.9307 21.6414 18.9179 21.5615 18.9215 21.4814C18.968 20.3851 19.4361 19.3492 20.2282 18.5899C21.0202 17.8305 22.075 17.4065 23.1722 17.4062C24.3135 17.4063 25.386 17.8499 26.1915 18.6555C26.9368 19.4121 27.3755 20.418 27.4229 21.479C27.427 21.5593 27.4146 21.6396 27.3866 21.715C27.3586 21.7903 27.3155 21.8592 27.26 21.9174C27.2045 21.9755 27.1377 22.0218 27.0637 22.0533C26.9898 22.0848 26.9102 22.1009 26.8298 22.1007ZM20.198 20.9143H26.1464C26.0134 20.3774 25.7385 19.8861 25.3504 19.4919C25.0648 19.2054 24.7253 18.9784 24.3514 18.824C23.9775 18.6697 23.5767 18.591 23.1722 18.5926C22.4886 18.5926 21.8245 18.821 21.2856 19.2417C20.7467 19.6624 20.3639 20.2511 20.198 20.9143Z" fill="black"/>
<path d="M55.2254 13.8073L40.4671 35.6008L33.1982 30.6774L47.9566 8.88388C48.3634 8.28641 48.9907 7.87484 49.7008 7.73959C50.4108 7.60434 51.1455 7.75648 51.7435 8.16258L54.4982 10.0287C55.0948 10.4341 55.5064 11.0594 55.6427 11.7677C55.779 12.476 55.629 13.2094 55.2254 13.8073Z" fill="#5AE4A7"/>
<path d="M40.4656 36.1929C40.3471 36.1932 40.2313 36.1577 40.1335 36.0909L32.8634 31.1675C32.7339 31.0787 32.6447 30.9424 32.6151 30.7882C32.5856 30.6341 32.6181 30.4744 32.7056 30.3441L47.464 8.55183C47.9593 7.82465 48.7229 7.32361 49.5871 7.15859C50.4514 6.99357 51.3458 7.17804 52.0742 7.67155L54.8301 9.53651C55.1911 9.77993 55.5001 10.0925 55.7394 10.4563C55.9787 10.82 56.1434 11.2275 56.2241 11.6554C56.3078 12.0825 56.3059 12.522 56.2185 12.9485C56.1311 13.3749 55.96 13.7797 55.7151 14.1396L40.9568 35.9331C40.9025 36.0134 40.8293 36.0792 40.7437 36.1247C40.6581 36.1702 40.5626 36.1928 40.4656 36.1929ZM34.0201 30.5185L40.3079 34.7764L54.734 13.4752C55.0508 13.0054 55.167 12.4395 55.0591 11.8796C54.9511 11.3196 54.6344 10.8368 54.1646 10.52L51.4098 8.65386C50.9419 8.33622 50.3671 8.21717 49.8115 8.32281C49.256 8.42846 48.765 8.75018 48.4463 9.21738L34.0201 30.5185Z" fill="black"/>
<path d="M53.6987 16.0634L55.2256 13.8069C55.6291 13.2091 55.7792 12.4756 55.6428 11.7673C55.5065 11.0591 55.0949 10.4337 54.4983 10.0283L51.7436 8.1622C51.1455 7.75622 50.4107 7.60427 49.7007 7.73974C48.9906 7.87521 48.3634 8.28703 47.9567 8.8847L46.4287 11.14L53.6987 16.0634Z" fill="#283E42"/>
<path d="M53.6969 16.6559C53.5784 16.6562 53.4626 16.6207 53.3647 16.5538L46.0947 11.6316C45.965 11.5431 45.8755 11.4069 45.8458 11.2527C45.816 11.0985 45.8483 10.9388 45.9357 10.8083L47.4638 8.55183C47.9591 7.82465 48.7226 7.32361 49.5869 7.15859C50.4511 6.99357 51.3455 7.17804 52.074 7.67155L54.8299 9.53651C55.1909 9.77993 55.4999 10.0925 55.7392 10.4563C55.9785 10.82 56.1432 11.2275 56.2239 11.6554C56.3075 12.0825 56.3056 12.522 56.2183 12.9485C56.1309 13.3749 55.9598 13.7797 55.7149 14.1396L54.1881 16.3961C54.1337 16.4766 54.0603 16.5425 53.9745 16.588C53.8886 16.6335 53.7929 16.6572 53.6957 16.6571L53.6969 16.6559ZM47.2502 10.9815L53.5379 15.2394L54.7326 13.4752C55.0506 13.0054 55.1668 12.4395 55.0589 11.8796C54.9509 11.3196 54.6341 10.8368 54.1643 10.52L51.4096 8.65386C50.9417 8.33622 50.3669 8.21717 49.8113 8.32281C49.2557 8.42846 48.7648 8.75018 48.4461 9.21738L47.2502 10.9815Z" fill="black"/>
<path d="M40.4654 35.5992L36.4093 37.3704L34.5585 38.1831C34.386 38.2561 34.1981 38.2848 34.0116 38.2667C33.8252 38.2485 33.6463 38.184 33.4912 38.0791C33.336 37.9742 33.2096 37.8321 33.1233 37.6659C33.0371 37.4997 32.9937 37.3145 32.9973 37.1272L33.0566 35.0997L33.1966 30.6758L40.4654 35.5992Z" fill="#FFDDAB"/>
<path d="M34.1189 38.8656C33.8905 38.8659 33.6643 38.8206 33.4537 38.7322C33.2432 38.6438 33.0524 38.5141 32.8927 38.3508C32.7331 38.1874 32.6077 37.9938 32.5241 37.7813C32.4405 37.5687 32.4002 37.3416 32.4058 37.1133L32.6051 30.6595C32.6077 30.5531 32.639 30.4493 32.6956 30.3592C32.7522 30.269 32.832 30.1958 32.9268 30.1473C33.0215 30.0987 33.1275 30.0765 33.2338 30.0832C33.34 30.0898 33.4425 30.125 33.5304 30.1849L40.7993 35.1083C40.8871 35.1679 40.9574 35.2498 41.0028 35.3457C41.0481 35.4416 41.067 35.548 41.0573 35.6536C41.0476 35.7593 41.0097 35.8604 40.9477 35.9464C40.8856 36.0325 40.8016 36.1003 40.7044 36.1429L34.7975 38.7268C34.578 38.8193 34.3467 38.8656 34.1189 38.8656ZM33.757 31.7711L33.591 37.1441C33.5895 37.2318 33.6102 37.3184 33.651 37.3959C33.6919 37.4734 33.7516 37.5395 33.8247 37.5878C33.8976 37.6378 33.9819 37.6685 34.0698 37.6772C34.1577 37.6859 34.2464 37.6723 34.3277 37.6377L39.2428 35.4868L33.757 31.7711Z" fill="black"/>
<path d="M36.4093 37.3723L34.5585 38.1849C34.386 38.2579 34.1981 38.2867 34.0116 38.2685C33.8252 38.2504 33.6463 38.1859 33.4912 38.081C33.336 37.976 33.2096 37.834 33.1233 37.6677C33.0371 37.5015 32.9937 37.3163 32.9973 37.1291L33.0566 35.1016C33.6498 35.3068 34.2643 35.6176 34.8694 36.0269C35.4744 36.4374 35.9988 36.8965 36.4093 37.3723Z" fill="#283E42"/>
<path d="M34.1189 38.8658C33.8905 38.8662 33.6643 38.8208 33.4537 38.7324C33.2432 38.644 33.0524 38.5143 32.8927 38.351C32.7331 38.1877 32.6077 37.994 32.5241 37.7815C32.4405 37.569 32.4002 37.3419 32.4058 37.1135L32.4651 35.0837C32.4678 34.9906 32.4924 34.8996 32.5368 34.8178C32.5813 34.736 32.6443 34.6658 32.7209 34.6129C32.7974 34.56 32.8854 34.5259 32.9776 34.5133C33.0698 34.5007 33.1637 34.5099 33.2517 34.5403C33.903 34.7633 34.5602 35.0979 35.2044 35.5345C35.817 35.9433 36.3738 36.4303 36.8606 36.983C36.9211 37.0533 36.9642 37.1368 36.9866 37.2268C37.009 37.3169 37.01 37.4109 36.9894 37.5013C36.9689 37.5918 36.9274 37.6761 36.8684 37.7477C36.8093 37.8192 36.7343 37.8759 36.6494 37.9131L34.7987 38.727C34.578 38.8195 34.3479 38.8658 34.1189 38.8658ZM33.6265 35.9806L33.591 37.1432C33.5893 37.231 33.6099 37.3178 33.6508 37.3956C33.6916 37.4734 33.7514 37.5396 33.8247 37.5881C33.8976 37.638 33.9819 37.6687 34.0698 37.6774C34.1577 37.6861 34.2464 37.6725 34.3277 37.6379L35.3835 37.1728C35.1168 36.9361 34.8346 36.7173 34.5389 36.518C34.2466 36.3188 33.9426 36.1392 33.6265 35.9806Z" fill="black"/>
<path d="M50.0626 13.6035L36.8311 33.1393Z" fill="white"/>
<path d="M36.8321 33.7323C36.7245 33.7323 36.6189 33.7029 36.5266 33.6474C36.4344 33.5919 36.359 33.5123 36.3085 33.4172C36.258 33.3221 36.2344 33.2151 36.2401 33.1076C36.2458 33.0001 36.2807 32.8962 36.341 32.807L49.5725 13.2711C49.615 13.2042 49.6706 13.1464 49.7358 13.1013C49.8011 13.0562 49.8747 13.0247 49.9524 13.0085C50.03 12.9924 50.1101 12.992 50.188 13.0073C50.2658 13.0227 50.3397 13.0535 50.4055 13.0979C50.4712 13.1424 50.5273 13.1995 50.5705 13.266C50.6137 13.3326 50.6432 13.4071 50.6571 13.4851C50.671 13.5632 50.6692 13.6433 50.6516 13.7207C50.634 13.798 50.6011 13.8711 50.5548 13.9355L37.3233 33.4713C37.269 33.5517 37.1958 33.6175 37.1102 33.663C37.0246 33.7085 36.9291 33.7323 36.8321 33.7323Z" fill="black"/>
</svg>
