<svg width="71" height="70" viewBox="0 0 71 70" fill="none" xmlns="http://www.w3.org/2000/svg">
<mask id="mask0_2077_11043" style="mask-type:luminance" maskUnits="userSpaceOnUse" x="0" y="0" width="71" height="70">
<path d="M0.5 0.000205994H70.4998V70H0.5V0.000205994Z" fill="white"/>
</mask>
<g mask="url(#mask0_2077_11043)">
<path d="M39.328 68.9746H10.0703C7.04991 68.9746 4.60156 66.5263 4.60156 63.5059V6.49432C4.60156 3.47395 7.04991 1.02559 10.0703 1.02559H39.328C42.3484 1.02559 44.7968 3.47395 44.7968 6.49432V63.5059C44.7968 66.5263 42.3484 68.9746 39.328 68.9746Z" fill="#7B727B"/>
<path d="M39.3281 1.02559H35.2266C38.2469 1.02559 40.6953 3.47395 40.6953 6.49432V63.5059C40.6953 66.5263 38.2469 68.9746 35.2266 68.9746H39.3281C42.3485 68.9746 44.7968 66.5263 44.7968 63.5059V6.49432C44.7968 3.47395 42.3485 1.02559 39.3281 1.02559Z" fill="#686169"/>
<path d="M41.2421 6.49431V63.5059C41.2421 64.563 40.3851 65.4199 39.328 65.4199H10.0703C9.0132 65.4199 8.15625 64.563 8.15625 63.5059V6.49431C8.15625 5.43721 9.0132 4.58026 10.0703 4.58026H15.5533C15.7087 4.58021 15.8604 4.62872 15.9869 4.71902C16.1135 4.80932 16.2087 4.93689 16.2593 5.08393L16.9817 7.18296C17.0323 7.32996 17.1275 7.4575 17.2541 7.54779C17.3806 7.63808 17.5322 7.68662 17.6877 7.68663H31.7106C31.8661 7.68662 32.0177 7.63808 32.1442 7.54779C32.2708 7.4575 32.366 7.32996 32.4166 7.18296L33.1391 5.08393C33.1896 4.93689 33.2848 4.80932 33.4114 4.71902C33.538 4.62872 33.6896 4.58021 33.8451 4.58026H39.328C40.3851 4.58026 41.2421 5.43721 41.2421 6.49431Z" fill="#D6FAEC"/>
<path d="M39.3281 4.58026H35.2266C36.2837 4.58026 37.1406 5.43721 37.1406 6.49431V63.5059C37.1406 64.563 36.2837 65.4199 35.2266 65.4199H39.3281C40.3852 65.4199 41.2422 64.563 41.2422 63.5059V6.49431C41.2422 5.43721 40.3852 4.58026 39.3281 4.58026Z" fill="#CCFAE8"/>
<path d="M30.0312 56.6016H19.3672C17.7815 56.6016 16.4961 55.3161 16.4961 53.7305C16.4961 52.1448 17.7815 50.8594 19.3672 50.8594H30.0312C31.6169 50.8594 32.9023 52.1448 32.9023 53.7305C32.9023 55.3161 31.6169 56.6016 30.0312 56.6016Z" fill="#2FD9E7"/>
<path d="M63.7144 44.707H16.5824C15.1001 44.707 13.8984 43.5054 13.8984 42.0231V14.5785C13.8984 13.0962 15.1001 11.8946 16.5824 11.8946H63.7144C65.1967 11.8946 66.3983 13.0962 66.3983 14.5785V42.0231C66.3983 43.5054 65.1967 44.707 63.7144 44.707Z" fill="#2FD9E7"/>
<path d="M63.7148 11.8946H59.6133C61.0956 11.8946 62.2972 13.0962 62.2972 14.5785V42.0231C62.2972 43.5054 61.0956 44.707 59.6133 44.707H63.7148C65.1971 44.707 66.3987 43.5054 66.3987 42.0231V14.5785C66.3987 13.0962 65.1971 11.8946 63.7148 11.8946Z" fill="#00D0E4"/>
<path d="M29.3476 24.3359H20.8711C20.6535 24.3359 20.4449 24.2495 20.291 24.0957C20.1372 23.9418 20.0508 23.7332 20.0508 23.5156V18.0469C20.0508 17.8293 20.1372 17.6207 20.291 17.4668C20.4449 17.313 20.6535 17.2266 20.8711 17.2266H29.3476C29.5652 17.2266 29.7738 17.313 29.9277 17.4668C30.0815 17.6207 30.1679 17.8293 30.1679 18.0469V23.5156C30.1679 23.7332 30.0815 23.9418 29.9277 24.0957C29.7738 24.2495 29.5652 24.3359 29.3476 24.3359Z" fill="#FFE589"/>
<path d="M25.9297 39.625H13.8984V32.5156H25.9297C27.8928 32.5156 29.4843 34.1072 29.4843 36.0703C29.4843 38.0335 27.8928 39.625 25.9297 39.625Z" fill="#FF6167"/>
<path d="M31.8769 53.7305C31.8769 54.7482 31.0489 55.5762 30.0312 55.5762H19.3672C18.3494 55.5762 17.5215 54.7482 17.5215 53.7305C17.5215 52.7127 18.3494 51.8848 19.3672 51.8848H30.0312C31.0489 51.8848 31.8769 52.7127 31.8769 53.7305ZM19.3672 49.834C17.2186 49.834 15.4707 51.582 15.4707 53.7305C15.4707 55.879 17.2186 57.627 19.3672 57.627H30.0312C32.1797 57.627 33.9277 55.879 33.9277 53.7305C33.9277 51.582 32.1797 49.834 30.0312 49.834H19.3672Z" fill="black"/>
<path d="M25.9296 33.5408C27.3243 33.5408 28.4589 34.6754 28.4589 36.0701C28.4589 37.4647 27.3243 38.5993 25.9296 38.5993H14.9238V33.5408H25.9296ZM63.7143 10.8693H58.4947C58.2228 10.8693 57.9619 10.9773 57.7696 11.1696C57.5773 11.3619 57.4693 11.6228 57.4693 11.8947C57.4693 12.1667 57.5773 12.4275 57.7696 12.6198C57.9619 12.8121 58.2228 12.9201 58.4947 12.9201H63.7143C64.629 12.9201 65.3729 13.664 65.3729 14.5786V42.0232C65.3729 42.9377 64.629 43.6817 63.7143 43.6817H16.5823C15.6677 43.6817 14.9238 42.9377 14.9238 42.0232V40.6501H25.9296C28.4551 40.6501 30.5097 38.5955 30.5097 36.0701C30.5097 33.5446 28.4551 31.49 25.9296 31.49H14.9238V14.5786C14.9238 13.664 15.6677 12.9201 16.5823 12.9201H53.6747C53.9466 12.9201 54.2075 12.8121 54.3998 12.6198C54.5921 12.4275 54.7001 12.1667 54.7001 11.8947C54.7001 11.6228 54.5921 11.3619 54.3998 11.1696C54.2075 10.9773 53.9466 10.8693 53.6747 10.8693H45.8221V6.49433C45.8221 2.9134 42.9088 0.000205994 39.328 0.000205994H10.0703C6.4895 0.000205994 3.57617 2.9134 3.57617 6.49433V12.3785C3.57617 12.6505 3.6842 12.9113 3.8765 13.1036C4.0688 13.2959 4.32961 13.4039 4.60156 13.4039C4.87351 13.4039 5.13432 13.2959 5.32662 13.1036C5.51892 12.9113 5.62695 12.6505 5.62695 12.3785V6.49433C5.62695 4.0442 7.62016 2.05098 10.0703 2.05098H39.328C41.7781 2.05098 43.7714 4.0442 43.7714 6.49433V10.8693H42.2675V6.49433C42.2675 4.8734 40.9488 3.55489 39.328 3.55489H33.8456C33.4766 3.555 33.1168 3.67018 32.8163 3.88438C32.5158 4.09858 32.2896 4.40113 32.1692 4.74993L31.5122 6.66112H17.8861L17.2286 4.74843C17.108 4.39996 16.8818 4.09774 16.5814 3.88382C16.281 3.6699 15.9215 3.55492 15.5527 3.55489H10.0703C8.4495 3.55489 7.13085 4.8734 7.13085 6.49433V63.5059C7.13085 65.1267 8.4495 66.4453 10.0703 66.4453H39.328C40.9488 66.4453 42.2675 65.1267 42.2675 63.5059V60.2998C42.2675 59.7334 41.8085 59.2744 41.2421 59.2744C41.1074 59.2744 40.9741 59.3009 40.8497 59.3525C40.7252 59.404 40.6122 59.4795 40.517 59.5747C40.4218 59.67 40.3462 59.783 40.2947 59.9074C40.2432 60.0318 40.2167 60.1652 40.2167 60.2998V63.5059C40.2167 63.9959 39.818 64.3945 39.328 64.3945H10.0703C9.83469 64.3943 9.60882 64.3005 9.44223 64.1339C9.27563 63.9673 9.18191 63.7415 9.18162 63.5059V6.49433C9.18162 6.00433 9.58029 5.60566 10.0703 5.60566H15.3547L16.0122 7.51807C16.1327 7.86664 16.359 8.16896 16.6594 8.38294C16.9598 8.59692 17.3194 8.7119 17.6882 8.71189H31.7101C32.4661 8.71189 33.1396 8.23215 33.3867 7.5167L34.0436 5.60566H39.328C39.818 5.60566 40.2167 6.00433 40.2167 6.49433V10.8693H16.5823C14.537 10.8693 12.873 12.5333 12.873 14.5786V42.0232C12.873 44.0685 14.537 45.7325 16.5823 45.7325H40.2167V55.5178C40.2167 56.0843 40.6757 56.5432 41.2421 56.5432C41.8085 56.5432 42.2675 56.0843 42.2675 55.5178V45.7325H43.7714V63.5059C43.7714 65.956 41.7781 67.9492 39.328 67.9492H10.0703C7.62016 67.9492 5.62695 65.956 5.62695 63.5059V17.2267C5.62695 16.6603 5.16798 16.2013 4.60156 16.2013C4.4669 16.2013 4.33355 16.2278 4.20914 16.2793C4.08472 16.3309 3.97168 16.4064 3.87646 16.5016C3.78124 16.5968 3.70571 16.7099 3.65419 16.8343C3.60266 16.9587 3.57615 17.0921 3.57617 17.2267V63.5059C3.57617 67.0867 6.4895 70 10.0703 70H39.328C42.9088 70 45.8221 67.0867 45.8221 63.5059V45.7325H63.7143C65.7596 45.7325 67.4236 44.0685 67.4236 42.0232V14.5786C67.4236 12.5333 65.7596 10.8693 63.7143 10.8693Z" fill="black"/>
<path d="M51.4617 34.6821L52.3577 37.0563H50.5574L51.4617 34.6821ZM47.9651 40.9816C48.0909 41.0296 48.225 41.0523 48.3596 41.0484C48.4942 41.0445 48.6267 41.0142 48.7496 40.9591C48.8725 40.904 48.9833 40.8253 49.0758 40.7274C49.1682 40.6294 49.2405 40.5143 49.2884 40.3884L49.7763 39.1071H53.1315L53.614 40.3855C53.7101 40.6399 53.9033 40.8457 54.1511 40.9577C54.3989 41.0697 54.681 41.0787 54.9354 40.9827C55.0614 40.9352 55.1768 40.8633 55.275 40.7712C55.3732 40.679 55.4522 40.5684 55.5077 40.4457C55.5632 40.323 55.5939 40.1906 55.5982 40.056C55.6024 39.9214 55.5802 39.7873 55.5326 39.6614L52.5904 31.8647C52.5038 31.6366 52.3497 31.4403 52.1487 31.3019C51.9477 31.1636 51.7094 31.0898 51.4654 31.0903H51.4639C51.2206 31.0901 50.9829 31.1637 50.7825 31.3016C50.582 31.4394 50.4281 31.6349 50.3413 31.8621L47.3719 39.6583C47.3239 39.7842 47.3012 39.9182 47.3051 40.0528C47.309 40.1875 47.3393 40.32 47.3944 40.4429C47.4495 40.5657 47.5282 40.6766 47.6262 40.769C47.7241 40.8615 47.8393 40.9337 47.9651 40.9816Z" fill="black"/>
<path d="M57.3299 36.2883L57.3207 40.021C57.3204 40.1556 57.3466 40.289 57.3978 40.4136C57.449 40.5381 57.5243 40.6513 57.6192 40.7468C57.7142 40.8422 57.8271 40.918 57.9513 40.9698C58.0756 41.0217 58.2089 41.0485 58.3435 41.0488H58.3461C58.6176 41.0488 58.878 40.9412 59.0703 40.7494C59.2625 40.5577 59.3708 40.2975 59.3715 40.026L59.3807 36.2897L61.7203 32.6953C61.7938 32.5825 61.8443 32.4563 61.869 32.3239C61.8937 32.1916 61.8921 32.0556 61.8643 31.9239C61.8364 31.7921 61.7829 31.6672 61.7068 31.5561C61.6306 31.445 61.5334 31.3501 61.4205 31.2766C61.3077 31.2031 61.1815 31.1525 61.0491 31.1278C60.9167 31.103 60.7808 31.1046 60.649 31.1325C60.5172 31.1603 60.3923 31.2139 60.2812 31.29C60.1702 31.3662 60.0752 31.4635 60.0018 31.5764L58.3546 34.1067L56.6888 31.5552C56.5401 31.3275 56.3071 31.1682 56.0409 31.1123C55.7747 31.0564 55.4973 31.1085 55.2695 31.2572C55.0418 31.4059 54.8825 31.6389 54.8266 31.9051C54.7707 32.1713 54.8228 32.4487 54.9715 32.6765L57.3299 36.2883Z" fill="black"/>
<path d="M44.7994 33.1412C45.4768 33.1412 46.0493 33.6935 46.0493 34.3473C46.0493 35.0011 45.4768 35.5536 44.7994 35.5536C44.5269 35.5536 44.0634 35.5553 43.6328 35.5577C43.6304 35.1116 43.6285 34.6276 43.6285 34.3473C43.6285 34.1094 43.6273 33.6086 43.6261 33.1412H44.7994ZM41.5723 40.0234C41.5723 40.2954 41.6803 40.5562 41.8726 40.7485C42.0649 40.9408 42.3257 41.0488 42.5977 41.0488C42.8696 41.0488 43.1304 40.9408 43.3227 40.7485C43.515 40.5562 43.623 40.2954 43.623 40.0234V37.6084C44.056 37.6063 44.525 37.6043 44.7994 37.6043C46.6194 37.6043 48.1 36.1432 48.1 34.3473C48.1 32.5515 46.6194 31.0904 44.7994 31.0904H42.5977C42.4627 31.0904 42.3291 31.117 42.2045 31.1687C42.0799 31.2204 41.9667 31.2962 41.8714 31.3918C41.7761 31.4873 41.7007 31.6007 41.6493 31.7255C41.598 31.8503 41.5718 31.984 41.5723 32.1189C41.5723 32.1189 41.574 32.697 41.5756 33.2817C41.574 33.3041 41.5723 33.3263 41.5723 33.349V40.0234Z" fill="black"/>
<path d="M29.1425 23.3106H21.0762V18.252H29.1425V23.3106ZM20.8711 16.2012C19.8534 16.2012 19.0254 17.0292 19.0254 18.0469V23.5156C19.0254 24.5334 19.8534 25.3613 20.8711 25.3613H29.3476C30.3654 25.3613 31.1933 24.5334 31.1933 23.5156V18.0469C31.1933 17.0292 30.3654 16.2012 29.3476 16.2012H20.8711Z" fill="black"/>
<path d="M37.9473 19.6973V21.3379C37.9473 21.9043 38.4062 22.3633 38.9727 22.3633C39.5391 22.3633 39.998 21.9043 39.998 21.3379V19.6973C39.998 19.1308 39.5391 18.6719 38.9727 18.6719C38.838 18.6719 38.7046 18.6984 38.5802 18.7499C38.4558 18.8014 38.3428 18.877 38.2476 18.9722C38.1523 19.0674 38.0768 19.1804 38.0253 19.3049C37.9738 19.4293 37.9472 19.5626 37.9473 19.6973Z" fill="black"/>
<path d="M55.8848 22.3633C56.4512 22.3633 56.9102 21.9043 56.9102 21.3379V19.6973C56.9102 19.1308 56.4512 18.6719 55.8848 18.6719C55.7501 18.6719 55.6168 18.6984 55.4923 18.7499C55.3679 18.8014 55.2549 18.877 55.1597 18.9722C55.0644 19.0674 54.9889 19.1804 54.9374 19.3049C54.8859 19.4293 54.8594 19.5626 54.8594 19.6973V21.3379C54.8594 21.9043 55.3183 22.3633 55.8848 22.3633Z" fill="black"/>
<path d="M60.5664 21.3379V19.6973C60.5664 19.1308 60.1074 18.6719 59.541 18.6719C59.4064 18.6719 59.273 18.6984 59.1486 18.7499C59.0242 18.8014 58.9111 18.877 58.8159 18.9722C58.7207 19.0674 58.6452 19.1804 58.5936 19.3049C58.5421 19.4293 58.5156 19.5626 58.5156 19.6973V21.3379C58.5156 21.9043 58.9746 22.3633 59.541 22.3633C60.1074 22.3633 60.5664 21.9043 60.5664 21.3379Z" fill="black"/>
<path d="M45.3066 21.3379V19.6973C45.3066 19.1308 44.8477 18.6719 44.2812 18.6719C44.1466 18.6719 44.0132 18.6984 43.8888 18.7499C43.7644 18.8014 43.6514 18.877 43.5561 18.9722C43.4609 19.0674 43.3854 19.1804 43.3339 19.3049C43.2824 19.4293 43.2558 19.5626 43.2559 19.6973V21.3379C43.2559 21.9043 43.7148 22.3633 44.2812 22.3633C44.8477 22.3633 45.3066 21.9043 45.3066 21.3379Z" fill="black"/>
<path d="M48.1543 22.3633C48.7207 22.3633 49.1797 21.9043 49.1797 21.3379V19.6973C49.1797 19.1308 48.7207 18.6719 48.1543 18.6719C48.0196 18.6719 47.8863 18.6984 47.7619 18.7499C47.6375 18.8014 47.5244 18.877 47.4292 18.9722C47.334 19.0674 47.2584 19.1804 47.2069 19.3049C47.1554 19.4293 47.1289 19.5626 47.1289 19.6973V21.3379C47.1289 21.9043 47.5879 22.3633 48.1543 22.3633Z" fill="black"/>
</g>
</svg>
